<svg width="24" height="24" viewBox="0 0 24 24" fill="none" xmlns="http://www.w3.org/2000/svg">
<path fill-rule="evenodd" clip-rule="evenodd" d="M5.09297 15.5757C4.78707 16.2413 5.27337 17 6.00592 17H6.18789C6.47777 17 6.73998 16.8279 6.85531 16.562L7.60651 14.8298H12.3341L13.0876 16.5673C13.2016 16.83 13.4606 17 13.7469 17H13.9365C14.6731 17 15.1607 16.2354 14.85 15.5675L11.2489 7.82738C11.0141 7.32273 10.508 7 9.95139 7C9.39238 7 8.88455 7.32551 8.65111 7.83345L5.09297 15.5757ZM9.93087 9.3525C9.93758 9.33659 9.95317 9.32624 9.97044 9.32624C9.98758 9.32624 10.0031 9.33643 10.0099 9.35217L11.6385 13.1277H8.33938L9.93087 9.3525ZM16.3788 15.8936C16.3788 16.5047 16.8741 17 17.4852 17C18.0962 17 18.5916 16.5047 18.5916 15.8936V8.10638C18.5916 7.49534 18.0962 7 17.4852 7C16.8741 7 16.3788 7.49534 16.3788 8.10638V15.8936Z" fill="#60BCBC"/>
<path fill-rule="evenodd" clip-rule="evenodd" d="M20 12.5C20 12.2239 20.2239 12 20.5 12H22.5C22.7761 12 23 12.2239 23 12.5C23 12.7761 22.7761 13 22.5 13H20.5C20.2239 13 20 12.7761 20 12.5Z" fill="#60BCBC"/>
<circle cx="23" cy="12.5" r="1" fill="#60BCBC"/>
<path fill-rule="evenodd" clip-rule="evenodd" d="M13 3C13 2.44772 12.5523 2 12 2C11.4477 2 11 2.44772 11 3C11 3.37014 11.2011 3.69331 11.5 3.86622L11.5 5.5C11.5 5.77614 11.7239 6 12 6C12.2761 6 12.5 5.77614 12.5 5.5L12.5 3.86622C12.7989 3.69331 13 3.37014 13 3Z" fill="#60BCBC"/>
<path fill-rule="evenodd" clip-rule="evenodd" d="M12.5 18.5C12.5 18.2239 12.2761 18 12 18C11.7239 18 11.5 18.2239 11.5 18.5L11.5 20.1338C11.2011 20.3067 11 20.6299 11 21C11 21.5523 11.4477 22 12 22C12.5523 22 13 21.5523 13 21C13 20.6299 12.7989 20.3067 12.5 20.1338L12.5 18.5Z" fill="#60BCBC"/>
<path fill-rule="evenodd" clip-rule="evenodd" d="M1 10C0.447715 10 0 10.4477 0 11C0 11.5523 0.447715 12 1 12C1.37014 12 1.69331 11.7989 1.86622 11.5L3.5 11.5C3.77614 11.5 4 11.2761 4 11C4 10.7239 3.77614 10.5 3.5 10.5L1.86622 10.5C1.69331 10.2011 1.37014 10 1 10Z" fill="#60BCBC"/>
<path fill-rule="evenodd" clip-rule="evenodd" d="M22 3C22 2.44772 21.5523 2 21 2C20.6299 2 20.3067 2.2011 20.1338 2.5L18 2.5C17.8674 2.5 17.7402 2.55268 17.6464 2.64645C17.5527 2.74021 17.5 2.86739 17.5 3V5.5C17.5 5.77614 17.7239 6 18 6C18.2761 6 18.5 5.77614 18.5 5.5V3.5L20.1338 3.5C20.3067 3.7989 20.6299 4 21 4C21.5523 4 22 3.55228 22 3Z" fill="#60BCBC"/>
<path fill-rule="evenodd" clip-rule="evenodd" d="M6.5 18.5C6.5 18.2239 6.27614 18 6 18C5.72386 18 5.5 18.2239 5.5 18.5L5.5 20.5L3.86622 20.5C3.69331 20.2011 3.37014 20 3 20C2.44772 20 2 20.4477 2 21C2 21.5523 2.44772 22 3 22C3.37014 22 3.69331 21.7989 3.86622 21.5L6 21.5C6.13261 21.5 6.25978 21.4473 6.35355 21.3536C6.44732 21.2598 6.5 21.1326 6.5 21L6.5 18.5Z" fill="#60BCBC"/>
<path fill-rule="evenodd" clip-rule="evenodd" d="M3.86622 2.5C3.69331 2.2011 3.37014 2 3 2C2.44772 2 2 2.44772 2 3C2 3.55228 2.44772 4 3 4C3.37014 4 3.69331 3.7989 3.86622 3.5L5.5 3.5V5.5C5.5 5.77614 5.72386 6 6 6C6.27614 6 6.5 5.77614 6.5 5.5V3C6.5 2.86739 6.44732 2.74021 6.35355 2.64645C6.25979 2.55268 6.13261 2.5 6 2.5L3.86622 2.5Z" fill="#60BCBC"/>
<path fill-rule="evenodd" clip-rule="evenodd" d="M20.1338 20.5C20.3067 20.2011 20.6299 20 21 20C21.5523 20 22 20.4477 22 21C22 21.5523 21.5523 22 21 22C20.6299 22 20.3067 21.7989 20.1338 21.5H18C17.8674 21.5 17.7402 21.4473 17.6464 21.3536C17.5527 21.2598 17.5 21.1326 17.5 21V18.5C17.5 18.2239 17.7239 18 18 18C18.2761 18 18.5 18.2239 18.5 18.5L18.5 20.5H20.1338Z" fill="#60BCBC"/>
</svg>
