<svg width="529" height="184" viewBox="0 0 529 184" fill="none" xmlns="http://www.w3.org/2000/svg">
<rect y="47" width="529" height="99" rx="5.58" fill="url(#paint0_linear_346_22510)"/>
<path d="M390.06 25.249H365.842C365.842 17.3804 358.214 11 348.807 11H497.739C507.146 11 514.773 17.3804 514.773 25.249V47.3545H448.323L390.06 25.249Z" fill="url(#paint1_linear_346_22510)"/>
<path d="M333 184V29.8424C333 19.4372 340.629 11 350.037 11H499C489.592 11 481.963 19.4372 481.963 29.8424V184L407.481 157.563L333 184Z" fill="url(#paint2_linear_346_22510)"/>
<path fill-rule="evenodd" clip-rule="evenodd" d="M344 85.9319V100H385.638V85.9319H373.915V43H361.626L345.374 51.9745V67.983L356.532 61.8108V85.9319H344ZM393.262 93.1397C397.064 98.2091 402.477 100.744 409.5 100.744C416.576 100.744 421.989 98.2091 425.738 93.1397C429.487 88.0174 431.362 80.8094 431.362 71.5154C431.362 62.2743 429.487 55.2247 425.738 50.3665C421.989 45.4555 416.576 43 409.5 43C402.477 43 397.064 45.4555 393.262 50.3665C389.513 55.2247 387.638 62.3007 387.638 71.5947C387.638 80.8358 389.513 88.0174 393.262 93.1397ZM413.857 83.6345C412.906 86.0636 411.454 87.2781 409.5 87.2781C407.546 87.2781 406.094 86.0636 405.144 83.6345C404.193 81.1526 403.718 77.1393 403.718 71.5947C403.718 66.05 404.193 62.1423 405.144 59.8716C406.094 57.601 407.546 56.4656 409.5 56.4656C411.454 56.4656 412.906 57.601 413.857 59.8716C414.807 62.1423 415.282 66.05 415.282 71.5947C415.282 77.1393 414.807 81.1526 413.857 83.6345Z" fill="url(#paint3_linear_346_22510)"/>
<path d="M448.137 100.267H441.309L457.586 72.2791H464.414L448.137 100.267ZM442.063 88.9132C439.628 88.9132 437.736 88.1193 436.386 86.5313C435.036 84.9433 434.361 82.8657 434.361 80.2984C434.361 77.7047 435.036 75.6404 436.386 74.1053C437.762 72.5703 439.655 71.8027 442.063 71.8027C444.498 71.8027 446.39 72.5967 447.74 74.1847C449.09 75.7462 449.765 77.7841 449.765 80.2984C449.765 82.8657 449.09 84.9433 447.74 86.5313C446.39 88.1193 444.498 88.9132 442.063 88.9132ZM442.063 83.9905C442.487 83.9905 442.791 83.7391 442.976 83.2362C443.188 82.7069 443.294 81.7276 443.294 80.2984C443.294 78.8693 443.188 77.9165 442.976 77.4401C442.764 76.9637 442.46 76.7255 442.063 76.7255C441.64 76.7255 441.322 76.9504 441.11 77.4004C440.925 77.8503 440.832 78.8163 440.832 80.2984C440.832 81.7806 440.925 82.773 441.11 83.2759C441.322 83.7523 441.64 83.9905 442.063 83.9905ZM463.66 100.744C461.225 100.744 459.332 99.9497 457.983 98.3617C456.633 96.7738 455.958 94.6962 455.958 92.1289C455.958 89.5352 456.633 87.4708 457.983 85.9358C459.359 84.4007 461.251 83.6332 463.66 83.6332C466.095 83.6332 467.987 84.4272 469.337 86.0152C470.686 87.5767 471.361 89.6146 471.361 92.1289C471.361 94.6962 470.686 96.7738 469.337 98.3617C467.987 99.9497 466.095 100.744 463.66 100.744ZM463.66 95.821C464.083 95.821 464.387 95.5695 464.573 95.0667C464.784 94.5374 464.89 93.5581 464.89 92.1289C464.89 90.6997 464.784 89.7469 464.573 89.2705C464.361 88.7941 464.057 88.556 463.66 88.556C463.236 88.556 462.919 88.7809 462.707 89.2308C462.522 89.6808 462.429 90.6468 462.429 92.1289C462.429 93.611 462.522 94.6035 462.707 95.1064C462.919 95.5828 463.236 95.821 463.66 95.821Z" fill="url(#paint4_linear_346_22510)"/>
<path d="M23.7081 86L32.3065 67.2904H35.73L44.4346 86H40.2415L37.9858 80.7985L39.6046 81.9396H28.485L30.1304 80.7985L27.8746 86H23.7081ZM34.005 71.6427L30.5815 79.7635L29.865 78.755H38.2246L37.6142 79.7635L34.1112 71.6427H34.005ZM45.7825 86V66.4677H49.7898V86H45.7825ZM57.9481 86.2919C56.2673 86.2919 55.02 85.8319 54.2062 84.9119C53.3923 83.9742 52.9854 82.5588 52.9854 80.6658V72.545H56.9927V80.6658C56.9927 81.515 57.1608 82.1431 57.4969 82.55C57.8508 82.9569 58.3904 83.1604 59.1158 83.1604C59.9119 83.1604 60.5665 82.8862 61.0796 82.3377C61.6104 81.7715 61.8758 81.0196 61.8758 80.0819V72.545H65.8831V86H61.9819V83.4258H62.3535C61.9465 84.3281 61.3627 85.0358 60.6019 85.5488C59.8589 86.0442 58.9742 86.2919 57.9481 86.2919ZM69.1851 86V76.0481C69.1851 75.4819 69.1674 74.9069 69.132 74.3231C69.0966 73.7215 69.0435 73.1288 68.9727 72.545H72.8208L73.1127 75.0396H72.7943C73.1835 74.1904 73.7585 73.5181 74.5193 73.0227C75.2801 72.5273 76.1824 72.2796 77.2262 72.2796C78.2524 72.2796 79.1104 72.5273 79.8004 73.0227C80.5081 73.5004 81.0124 74.2523 81.3131 75.2785H80.8885C81.2777 74.3585 81.897 73.6331 82.7462 73.1023C83.5954 72.5538 84.5597 72.2796 85.6389 72.2796C87.1604 72.2796 88.2927 72.7308 89.0358 73.6331C89.7789 74.5354 90.1504 75.9508 90.1504 77.8792V86H86.1431V78.0119C86.1431 77.0742 85.9927 76.4019 85.692 75.995C85.3912 75.5881 84.9047 75.3846 84.2324 75.3846C83.4362 75.3846 82.8081 75.6677 82.3481 76.2338C81.8881 76.8 81.6581 77.5785 81.6581 78.5692V86H77.6508V78.0119C77.6508 77.0742 77.5004 76.4019 77.1997 75.995C76.8989 75.5881 76.4124 75.3846 75.7401 75.3846C74.9439 75.3846 74.3158 75.6677 73.8558 76.2338C73.4135 76.8 73.1924 77.5785 73.1924 78.5692V86H69.1851ZM93.3651 86V76.0481C93.3651 75.4819 93.3474 74.9069 93.312 74.3231C93.2767 73.7215 93.2236 73.1288 93.1528 72.545H97.0009L97.2928 75.0396H96.9744C97.4167 74.155 98.0447 73.4738 98.8586 72.9962C99.6724 72.5185 100.619 72.2796 101.698 72.2796C103.273 72.2796 104.449 72.7396 105.228 73.6596C106.024 74.5619 106.422 75.9685 106.422 77.8792V86H102.415V78.065C102.415 77.0919 102.238 76.4019 101.884 75.995C101.53 75.5881 100.999 75.3846 100.292 75.3846C99.407 75.3846 98.6994 75.6677 98.1686 76.2338C97.6378 76.7823 97.3724 77.5254 97.3724 78.4631V86H93.3651ZM109.641 86V72.545H113.648V86H109.641ZM109.481 70.3423V66.6004H113.781V70.3423H109.481ZM124.678 86V67.2904H137.682V70.5015H128.633V74.8804H137.045V78.1181H128.633V82.7888H137.682V86H124.678ZM138.071 86L144.44 78.1712V79.9492L138.416 72.545H143.139L146.722 77.2423H145.289L148.898 72.545H153.596L147.598 79.9758V78.1446L153.967 86H149.217L145.289 80.9577H146.722L142.768 86H138.071ZM161.185 86.2919C159.752 86.2919 158.496 86.0088 157.416 85.4427C156.337 84.8765 155.506 84.0627 154.922 83.0012C154.338 81.9396 154.046 80.6835 154.046 79.2327C154.046 77.7642 154.338 76.5169 154.922 75.4908C155.523 74.4469 156.355 73.6508 157.416 73.1023C158.496 72.5538 159.752 72.2796 161.185 72.2796C162.087 72.2796 162.963 72.4123 163.812 72.6777C164.679 72.9431 165.387 73.3146 165.935 73.7923L164.767 76.5523C164.325 76.1454 163.812 75.8446 163.228 75.65C162.662 75.4377 162.114 75.3315 161.583 75.3315C160.504 75.3315 159.663 75.6677 159.062 76.34C158.46 77.0123 158.159 77.9854 158.159 79.2592C158.159 80.5331 158.46 81.5062 159.062 82.1785C159.663 82.8508 160.504 83.1869 161.583 83.1869C162.096 83.1869 162.636 83.0896 163.202 82.895C163.786 82.7004 164.307 82.4085 164.767 82.0192L165.935 84.7527C165.369 85.2304 164.652 85.6108 163.786 85.8938C162.936 86.1592 162.069 86.2919 161.185 86.2919ZM168.212 86V66.4677H172.219V86H168.212ZM180.377 86.2919C178.697 86.2919 177.449 85.8319 176.636 84.9119C175.822 83.9742 175.415 82.5588 175.415 80.6658V72.545H179.422V80.6658C179.422 81.515 179.59 82.1431 179.926 82.55C180.28 82.9569 180.82 83.1604 181.545 83.1604C182.341 83.1604 182.996 82.8862 183.509 82.3377C184.04 81.7715 184.305 81.0196 184.305 80.0819V72.545H188.312V86H184.411V83.4258H184.783C184.376 84.3281 183.792 85.0358 183.031 85.5488C182.288 86.0442 181.404 86.2919 180.377 86.2919ZM196.577 86.2919C195.374 86.2919 194.277 86.1592 193.286 85.8938C192.296 85.6285 191.455 85.2569 190.765 84.7792L191.8 82.1254C192.49 82.55 193.251 82.8862 194.083 83.1338C194.932 83.3815 195.772 83.5054 196.604 83.5054C197.382 83.5054 197.957 83.3815 198.329 83.1338C198.7 82.8862 198.886 82.55 198.886 82.1254C198.886 81.7715 198.762 81.4973 198.514 81.3027C198.284 81.1081 197.922 80.9665 197.426 80.8781L194.693 80.3738C193.543 80.1438 192.667 79.7192 192.066 79.1C191.464 78.4808 191.163 77.6758 191.163 76.685C191.163 75.8181 191.393 75.0573 191.853 74.4027C192.331 73.7304 193.012 73.2085 193.897 72.8369C194.781 72.4654 195.816 72.2796 197.002 72.2796C198.01 72.2796 198.966 72.4035 199.868 72.6512C200.77 72.8988 201.54 73.2792 202.177 73.7923L201.089 76.3665C200.54 75.9596 199.903 75.6323 199.178 75.3846C198.47 75.1369 197.789 75.0131 197.134 75.0131C196.285 75.0131 195.675 75.1546 195.303 75.4377C194.932 75.7031 194.746 76.0481 194.746 76.4727C194.746 76.7912 194.852 77.0565 195.064 77.2688C195.294 77.4812 195.639 77.6404 196.099 77.7465L198.859 78.2508C200.045 78.4631 200.947 78.8612 201.566 79.445C202.186 80.0288 202.495 80.8338 202.495 81.86C202.495 82.7977 202.248 83.5938 201.752 84.2485C201.257 84.9031 200.558 85.4073 199.656 85.7612C198.771 86.115 197.745 86.2919 196.577 86.2919ZM204.987 86V72.545H208.995V86H204.987ZM204.828 70.3423V66.6004H209.127V70.3423H204.828ZM216.171 86L210.359 72.545H214.579L218.427 82.3112H217.551L221.532 72.545H225.486L219.621 86H216.171ZM233.343 86.2919C231.008 86.2919 229.185 85.6638 227.876 84.4077C226.567 83.1515 225.912 81.4442 225.912 79.2858C225.912 77.8881 226.187 76.6673 226.735 75.6235C227.301 74.5796 228.08 73.7658 229.07 73.1819C230.079 72.5804 231.255 72.2796 232.6 72.2796C233.927 72.2796 235.033 72.5627 235.917 73.1288C236.82 73.695 237.492 74.4912 237.934 75.5173C238.394 76.5258 238.624 77.7023 238.624 79.0469V79.9758H229.203V77.9854H235.705L235.254 78.3569C235.254 77.2423 235.024 76.4019 234.564 75.8358C234.122 75.2519 233.476 74.96 232.627 74.96C231.689 74.96 230.963 75.305 230.45 75.995C229.955 76.685 229.707 77.6758 229.707 78.9673V79.3919C229.707 80.7012 230.026 81.6742 230.663 82.3112C231.317 82.9481 232.255 83.2665 233.476 83.2665C234.201 83.2665 234.882 83.1781 235.519 83.0012C236.174 82.8065 236.793 82.5058 237.377 82.0988L238.492 84.7527C237.819 85.2481 237.041 85.6285 236.156 85.8938C235.289 86.1592 234.352 86.2919 233.343 86.2919Z" fill="#FAFAFA"/>
<path d="M25.245 111V100.425H32.175V101.67H26.76V105H31.83V106.26H26.76V109.74H32.175V111H25.245ZM33.9723 111V105.255C33.9723 104.965 33.9573 104.67 33.9273 104.37C33.9073 104.06 33.8823 103.75 33.8523 103.44H35.3223L35.4573 105.03H35.2773C35.5073 104.47 35.8623 104.045 36.3423 103.755C36.8223 103.455 37.3773 103.305 38.0073 103.305C38.8973 103.305 39.5673 103.55 40.0173 104.04C40.4773 104.53 40.7073 105.29 40.7073 106.32V111H39.1923V106.41C39.1923 105.74 39.0573 105.26 38.7873 104.97C38.5273 104.67 38.1273 104.52 37.5873 104.52C36.9473 104.52 36.4373 104.72 36.0573 105.12C35.6773 105.51 35.4873 106.04 35.4873 106.71V111H33.9723ZM41.9789 114.315C41.8189 114.315 41.6339 114.3 41.4239 114.27C41.2039 114.24 41.0139 114.19 40.8539 114.12V112.89C40.9839 112.93 41.1289 112.965 41.2889 112.995C41.4389 113.035 41.5839 113.055 41.7239 113.055C42.1139 113.055 42.4089 112.93 42.6089 112.68C42.8189 112.44 42.9239 112.04 42.9239 111.48V103.44H44.4389V111.585C44.4389 112.485 44.2389 113.165 43.8389 113.625C43.4389 114.085 42.8189 114.315 41.9789 114.315ZM42.7889 101.865V100.29H44.5589V101.865H42.7889ZM49.8393 111.135C49.0893 111.135 48.4393 110.98 47.8893 110.67C47.3393 110.35 46.9143 109.9 46.6143 109.32C46.3143 108.73 46.1643 108.03 46.1643 107.22C46.1643 106.41 46.3143 105.715 46.6143 105.135C46.9143 104.545 47.3393 104.095 47.8893 103.785C48.4393 103.465 49.0893 103.305 49.8393 103.305C50.5893 103.305 51.2393 103.465 51.7893 103.785C52.3493 104.095 52.7793 104.545 53.0793 105.135C53.3893 105.715 53.5443 106.41 53.5443 107.22C53.5443 108.03 53.3893 108.73 53.0793 109.32C52.7793 109.9 52.3493 110.35 51.7893 110.67C51.2393 110.98 50.5893 111.135 49.8393 111.135ZM49.8393 109.95C50.4993 109.95 51.0243 109.72 51.4143 109.26C51.8043 108.8 51.9993 108.12 51.9993 107.22C51.9993 106.32 51.8043 105.645 51.4143 105.195C51.0243 104.735 50.4993 104.505 49.8393 104.505C49.1893 104.505 48.6693 104.735 48.2793 105.195C47.8893 105.645 47.6943 106.32 47.6943 107.22C47.6943 108.12 47.8843 108.8 48.2643 109.26C48.6543 109.72 49.1793 109.95 49.8393 109.95ZM54.9582 114.405L54.5982 113.175C55.0682 113.075 55.4582 112.955 55.7682 112.815C56.0882 112.675 56.3532 112.49 56.5632 112.26C56.7732 112.04 56.9532 111.755 57.1032 111.405L57.4782 110.52L57.4482 111.135L54.1632 103.44H55.7832L58.3332 109.74H57.9282L60.4782 103.44H62.0382L58.5732 111.54C58.3532 112.04 58.1182 112.46 57.8682 112.8C57.6182 113.14 57.3482 113.415 57.0582 113.625C56.7682 113.835 56.4482 114 56.0982 114.12C55.7482 114.24 55.3682 114.335 54.9582 114.405ZM70.1193 111.135C69.4493 111.135 68.8643 110.98 68.3643 110.67C67.8643 110.36 67.4743 109.91 67.1943 109.32C66.9243 108.73 66.7893 108.03 66.7893 107.22C66.7893 106.4 66.9243 105.7 67.1943 105.12C67.4743 104.54 67.8643 104.095 68.3643 103.785C68.8643 103.465 69.4493 103.305 70.1193 103.305C70.7793 103.305 71.3543 103.47 71.8443 103.8C72.3343 104.13 72.6593 104.58 72.8193 105.15H72.6543L72.8043 103.44H74.2743C74.2443 103.75 74.2143 104.06 74.1843 104.37C74.1643 104.67 74.1543 104.965 74.1543 105.255V111H72.6393V109.32H72.8043C72.6443 109.88 72.3143 110.325 71.8143 110.655C71.3243 110.975 70.7593 111.135 70.1193 111.135ZM70.4943 109.95C71.1443 109.95 71.6643 109.72 72.0543 109.26C72.4543 108.8 72.6543 108.12 72.6543 107.22C72.6543 106.32 72.4543 105.645 72.0543 105.195C71.6643 104.735 71.1443 104.505 70.4943 104.505C69.8343 104.505 69.3043 104.735 68.9043 105.195C68.5143 105.645 68.3193 106.32 68.3193 107.22C68.3193 108.12 68.5143 108.8 68.9043 109.26C69.2943 109.72 69.8243 109.95 70.4943 109.95ZM76.3649 111V105.255C76.3649 104.965 76.3499 104.67 76.3199 104.37C76.2999 104.06 76.2749 103.75 76.2449 103.44H77.7149L77.8499 105.03H77.6699C77.8999 104.47 78.2549 104.045 78.7349 103.755C79.2149 103.455 79.7699 103.305 80.3999 103.305C81.2899 103.305 81.9599 103.55 82.4099 104.04C82.8699 104.53 83.0999 105.29 83.0999 106.32V111H81.5849V106.41C81.5849 105.74 81.4499 105.26 81.1799 104.97C80.9199 104.67 80.5199 104.52 79.9799 104.52C79.3399 104.52 78.8299 104.72 78.4499 105.12C78.0699 105.51 77.8799 106.04 77.8799 106.71V111H76.3649ZM92.7505 111.135C91.5305 111.135 90.5705 110.79 89.8705 110.1C89.1705 109.41 88.8205 108.455 88.8205 107.235C88.8205 106.445 88.9705 105.755 89.2705 105.165C89.5805 104.575 90.0055 104.12 90.5455 103.8C91.0955 103.47 91.7305 103.305 92.4505 103.305C93.1605 103.305 93.7555 103.455 94.2355 103.755C94.7155 104.055 95.0805 104.48 95.3305 105.03C95.5805 105.57 95.7055 106.21 95.7055 106.95V107.43H90.0055V106.56H94.6705L94.4155 106.755C94.4155 106.005 94.2455 105.425 93.9055 105.015C93.5755 104.595 93.0955 104.385 92.4655 104.385C91.7655 104.385 91.2255 104.63 90.8455 105.12C90.4655 105.6 90.2755 106.265 90.2755 107.115V107.265C90.2755 108.155 90.4905 108.825 90.9205 109.275C91.3605 109.725 91.9805 109.95 92.7805 109.95C93.2205 109.95 93.6305 109.89 94.0105 109.77C94.4005 109.64 94.7705 109.43 95.1205 109.14L95.6155 110.175C95.2655 110.485 94.8405 110.725 94.3405 110.895C93.8405 111.055 93.3105 111.135 92.7505 111.135ZM96.3054 111L99.7404 106.74V107.46L96.4854 103.44H98.3004L100.595 106.395H100.055L102.35 103.44H104.15L100.925 107.445V106.755L104.345 111H102.53L100.055 107.835H100.595L98.1054 111H96.3054ZM108.441 111.135C107.621 111.135 107.001 110.915 106.581 110.475C106.161 110.025 105.951 109.355 105.951 108.465V104.61H104.481V103.44H105.951V101.445L107.466 101.04V103.44H109.566V104.61H107.466V108.33C107.466 108.89 107.566 109.29 107.766 109.53C107.966 109.77 108.256 109.89 108.636 109.89C108.826 109.89 108.991 109.875 109.131 109.845C109.281 109.805 109.416 109.76 109.536 109.71V110.94C109.386 111 109.211 111.045 109.011 111.075C108.811 111.115 108.621 111.135 108.441 111.135ZM110.92 111V105.315C110.92 105.005 110.91 104.695 110.89 104.385C110.88 104.065 110.86 103.75 110.83 103.44H112.3L112.465 105.39H112.225C112.325 104.92 112.495 104.53 112.735 104.22C112.975 103.91 113.265 103.68 113.605 103.53C113.955 103.38 114.32 103.305 114.7 103.305C114.86 103.305 114.995 103.315 115.105 103.335C115.215 103.345 115.325 103.365 115.435 103.395L115.42 104.745C115.25 104.675 115.1 104.635 114.97 104.625C114.85 104.605 114.7 104.595 114.52 104.595C114.08 104.595 113.705 104.695 113.395 104.895C113.085 105.085 112.85 105.345 112.69 105.675C112.53 106.005 112.45 106.36 112.45 106.74V111H110.92ZM119.426 111.135C118.756 111.135 118.171 110.98 117.671 110.67C117.171 110.36 116.781 109.91 116.501 109.32C116.231 108.73 116.096 108.03 116.096 107.22C116.096 106.4 116.231 105.7 116.501 105.12C116.781 104.54 117.171 104.095 117.671 103.785C118.171 103.465 118.756 103.305 119.426 103.305C120.086 103.305 120.661 103.47 121.151 103.8C121.641 104.13 121.966 104.58 122.126 105.15H121.961L122.111 103.44H123.581C123.551 103.75 123.521 104.06 123.491 104.37C123.471 104.67 123.461 104.965 123.461 105.255V111H121.946V109.32H122.111C121.951 109.88 121.621 110.325 121.121 110.655C120.631 110.975 120.066 111.135 119.426 111.135ZM119.801 109.95C120.451 109.95 120.971 109.72 121.361 109.26C121.761 108.8 121.961 108.12 121.961 107.22C121.961 106.32 121.761 105.645 121.361 105.195C120.971 104.735 120.451 104.505 119.801 104.505C119.141 104.505 118.611 104.735 118.211 105.195C117.821 105.645 117.626 106.32 117.626 107.22C117.626 108.12 117.821 108.8 118.211 109.26C118.601 109.72 119.131 109.95 119.801 109.95ZM130.361 111V109.695H132.821V101.745H133.601L130.601 103.575V102.075L133.256 100.425H134.381V109.695H136.691V111H130.361ZM142.055 111.135C140.835 111.135 139.895 110.67 139.235 109.74C138.585 108.8 138.26 107.455 138.26 105.705C138.26 103.925 138.585 102.58 139.235 101.67C139.895 100.75 140.835 100.29 142.055 100.29C143.285 100.29 144.225 100.75 144.875 101.67C145.525 102.58 145.85 103.92 145.85 105.69C145.85 107.45 145.52 108.8 144.86 109.74C144.21 110.67 143.275 111.135 142.055 111.135ZM142.055 109.83C142.825 109.83 143.395 109.495 143.765 108.825C144.145 108.155 144.335 107.11 144.335 105.69C144.335 104.26 144.145 103.22 143.765 102.57C143.395 101.91 142.825 101.58 142.055 101.58C141.295 101.58 140.725 101.91 140.345 102.57C139.965 103.22 139.775 104.255 139.775 105.675C139.775 107.105 139.965 108.155 140.345 108.825C140.735 109.495 141.305 109.83 142.055 109.83ZM151.154 111H149.834L156.104 100.425H157.424L151.154 111ZM149.909 106.755C149.079 106.755 148.424 106.47 147.944 105.9C147.474 105.32 147.239 104.525 147.239 103.515C147.239 102.495 147.479 101.705 147.959 101.145C148.439 100.575 149.089 100.29 149.909 100.29C150.739 100.29 151.389 100.58 151.859 101.16C152.329 101.73 152.564 102.515 152.564 103.515C152.564 104.525 152.329 105.32 151.859 105.9C151.389 106.47 150.739 106.755 149.909 106.755ZM149.909 105.735C150.339 105.735 150.674 105.555 150.914 105.195C151.164 104.825 151.289 104.265 151.289 103.515C151.289 102.755 151.164 102.2 150.914 101.85C150.674 101.49 150.339 101.31 149.909 101.31C149.479 101.31 149.139 101.49 148.889 101.85C148.649 102.2 148.529 102.755 148.529 103.515C148.529 104.275 148.649 104.835 148.889 105.195C149.139 105.555 149.479 105.735 149.909 105.735ZM157.349 111.135C156.519 111.135 155.869 110.85 155.399 110.28C154.929 109.7 154.694 108.905 154.694 107.895C154.694 106.875 154.929 106.085 155.399 105.525C155.879 104.955 156.529 104.67 157.349 104.67C158.179 104.67 158.829 104.96 159.299 105.54C159.769 106.11 160.004 106.895 160.004 107.895C160.004 108.905 159.769 109.7 159.299 110.28C158.829 110.85 158.179 111.135 157.349 111.135ZM157.349 110.115C157.779 110.115 158.114 109.935 158.354 109.575C158.604 109.215 158.729 108.655 158.729 107.895C158.729 107.135 158.604 106.58 158.354 106.23C158.114 105.87 157.779 105.69 157.349 105.69C156.919 105.69 156.579 105.87 156.329 106.23C156.089 106.58 155.969 107.135 155.969 107.895C155.969 108.655 156.089 109.215 156.329 109.575C156.579 109.935 156.919 110.115 157.349 110.115ZM168.703 111.135C168.043 111.135 167.458 110.98 166.948 110.67C166.448 110.36 166.058 109.91 165.778 109.32C165.508 108.73 165.373 108.03 165.373 107.22C165.373 106.4 165.508 105.7 165.778 105.12C166.058 104.54 166.448 104.095 166.948 103.785C167.458 103.465 168.043 103.305 168.703 103.305C169.353 103.305 169.923 103.47 170.413 103.8C170.913 104.12 171.243 104.56 171.403 105.12H171.223V99.96H172.738V111H171.238V109.29H171.418C171.248 109.86 170.918 110.31 170.428 110.64C169.938 110.97 169.363 111.135 168.703 111.135ZM169.078 109.95C169.728 109.95 170.253 109.72 170.653 109.26C171.053 108.8 171.253 108.12 171.253 107.22C171.253 106.32 171.053 105.645 170.653 105.195C170.253 104.735 169.728 104.505 169.078 104.505C168.418 104.505 167.888 104.735 167.488 105.195C167.098 105.645 166.903 106.32 166.903 107.22C166.903 108.12 167.098 108.8 167.488 109.26C167.888 109.72 168.418 109.95 169.078 109.95ZM174.949 111V103.44H176.464V111H174.949ZM174.829 101.865V100.29H176.584V101.865H174.829ZM181.279 111.135C180.649 111.135 180.069 111.055 179.539 110.895C179.009 110.735 178.569 110.51 178.219 110.22L178.684 109.185C179.054 109.465 179.464 109.675 179.914 109.815C180.364 109.955 180.824 110.025 181.294 110.025C181.844 110.025 182.259 109.93 182.539 109.74C182.819 109.54 182.959 109.27 182.959 108.93C182.959 108.67 182.869 108.46 182.689 108.3C182.519 108.14 182.234 108.02 181.834 107.94L180.394 107.655C179.754 107.515 179.269 107.275 178.939 106.935C178.609 106.595 178.444 106.16 178.444 105.63C178.444 105.18 178.564 104.78 178.804 104.43C179.054 104.08 179.404 103.805 179.854 103.605C180.314 103.405 180.849 103.305 181.459 103.305C182.019 103.305 182.539 103.385 183.019 103.545C183.499 103.705 183.899 103.935 184.219 104.235L183.739 105.24C183.429 104.98 183.079 104.78 182.689 104.64C182.299 104.49 181.904 104.415 181.504 104.415C180.944 104.415 180.529 104.52 180.259 104.73C179.989 104.94 179.854 105.215 179.854 105.555C179.854 105.815 179.934 106.03 180.094 106.2C180.264 106.36 180.529 106.485 180.889 106.575L182.329 106.86C183.009 107 183.519 107.23 183.859 107.55C184.199 107.87 184.369 108.3 184.369 108.84C184.369 109.31 184.239 109.72 183.979 110.07C183.719 110.42 183.359 110.685 182.899 110.865C182.439 111.045 181.899 111.135 181.279 111.135ZM189.47 111.135C188.71 111.135 188.045 110.98 187.475 110.67C186.915 110.35 186.48 109.895 186.17 109.305C185.87 108.705 185.72 107.995 185.72 107.175C185.72 106.365 185.875 105.67 186.185 105.09C186.495 104.51 186.93 104.07 187.49 103.77C188.05 103.46 188.71 103.305 189.47 103.305C189.96 103.305 190.435 103.39 190.895 103.56C191.355 103.72 191.735 103.95 192.035 104.25L191.54 105.315C191.26 105.045 190.945 104.845 190.595 104.715C190.245 104.575 189.905 104.505 189.575 104.505C188.855 104.505 188.29 104.735 187.88 105.195C187.47 105.655 187.265 106.32 187.265 107.19C187.265 108.07 187.47 108.745 187.88 109.215C188.29 109.685 188.855 109.92 189.575 109.92C189.895 109.92 190.23 109.86 190.58 109.74C190.93 109.61 191.25 109.405 191.54 109.125L192.035 110.19C191.725 110.49 191.335 110.725 190.865 110.895C190.405 111.055 189.94 111.135 189.47 111.135ZM196.734 111.135C195.984 111.135 195.334 110.98 194.784 110.67C194.234 110.35 193.809 109.9 193.509 109.32C193.209 108.73 193.059 108.03 193.059 107.22C193.059 106.41 193.209 105.715 193.509 105.135C193.809 104.545 194.234 104.095 194.784 103.785C195.334 103.465 195.984 103.305 196.734 103.305C197.484 103.305 198.134 103.465 198.684 103.785C199.244 104.095 199.674 104.545 199.974 105.135C200.284 105.715 200.439 106.41 200.439 107.22C200.439 108.03 200.284 108.73 199.974 109.32C199.674 109.9 199.244 110.35 198.684 110.67C198.134 110.98 197.484 111.135 196.734 111.135ZM196.734 109.95C197.394 109.95 197.919 109.72 198.309 109.26C198.699 108.8 198.894 108.12 198.894 107.22C198.894 106.32 198.699 105.645 198.309 105.195C197.919 104.735 197.394 104.505 196.734 104.505C196.084 104.505 195.564 104.735 195.174 105.195C194.784 105.645 194.589 106.32 194.589 107.22C194.589 108.12 194.779 108.8 195.159 109.26C195.549 109.72 196.074 109.95 196.734 109.95ZM204.895 111.135C203.985 111.135 203.3 110.89 202.84 110.4C202.39 109.9 202.165 109.135 202.165 108.105V103.44H203.68V108.075C203.68 108.705 203.81 109.17 204.07 109.47C204.33 109.77 204.725 109.92 205.255 109.92C205.855 109.92 206.34 109.72 206.71 109.32C207.08 108.92 207.265 108.39 207.265 107.73V103.44H208.78V111H207.31V109.38H207.505C207.295 109.94 206.96 110.375 206.5 110.685C206.04 110.985 205.505 111.135 204.895 111.135ZM210.999 111V105.255C210.999 104.965 210.984 104.67 210.954 104.37C210.934 104.06 210.909 103.75 210.879 103.44H212.349L212.484 105.03H212.304C212.534 104.47 212.889 104.045 213.369 103.755C213.849 103.455 214.404 103.305 215.034 103.305C215.924 103.305 216.594 103.55 217.044 104.04C217.504 104.53 217.734 105.29 217.734 106.32V111H216.219V106.41C216.219 105.74 216.084 105.26 215.814 104.97C215.554 104.67 215.154 104.52 214.614 104.52C213.974 104.52 213.464 104.72 213.084 105.12C212.704 105.51 212.514 106.04 212.514 106.71V111H210.999ZM222.83 111.135C222.01 111.135 221.39 110.915 220.97 110.475C220.55 110.025 220.34 109.355 220.34 108.465V104.61H218.87V103.44H220.34V101.445L221.855 101.04V103.44H223.955V104.61H221.855V108.33C221.855 108.89 221.955 109.29 222.155 109.53C222.355 109.77 222.645 109.89 223.025 109.89C223.215 109.89 223.38 109.875 223.52 109.845C223.67 109.805 223.805 109.76 223.925 109.71V110.94C223.775 111 223.6 111.045 223.4 111.075C223.2 111.115 223.01 111.135 222.83 111.135ZM232.579 111.135C231.829 111.135 231.179 110.98 230.629 110.67C230.079 110.35 229.654 109.9 229.354 109.32C229.054 108.73 228.904 108.03 228.904 107.22C228.904 106.41 229.054 105.715 229.354 105.135C229.654 104.545 230.079 104.095 230.629 103.785C231.179 103.465 231.829 103.305 232.579 103.305C233.329 103.305 233.979 103.465 234.529 103.785C235.089 104.095 235.519 104.545 235.819 105.135C236.129 105.715 236.284 106.41 236.284 107.22C236.284 108.03 236.129 108.73 235.819 109.32C235.519 109.9 235.089 110.35 234.529 110.67C233.979 110.98 233.329 111.135 232.579 111.135ZM232.579 109.95C233.239 109.95 233.764 109.72 234.154 109.26C234.544 108.8 234.739 108.12 234.739 107.22C234.739 106.32 234.544 105.645 234.154 105.195C233.764 104.735 233.239 104.505 232.579 104.505C231.929 104.505 231.409 104.735 231.019 105.195C230.629 105.645 230.434 106.32 230.434 107.22C230.434 108.12 230.624 108.8 231.004 109.26C231.394 109.72 231.919 109.95 232.579 109.95ZM238.054 111V105.255C238.054 104.965 238.039 104.67 238.009 104.37C237.989 104.06 237.964 103.75 237.934 103.44H239.404L239.539 105.03H239.359C239.589 104.47 239.944 104.045 240.424 103.755C240.904 103.455 241.459 103.305 242.089 103.305C242.979 103.305 243.649 103.55 244.099 104.04C244.559 104.53 244.789 105.29 244.789 106.32V111H243.274V106.41C243.274 105.74 243.139 105.26 242.869 104.97C242.609 104.67 242.209 104.52 241.669 104.52C241.029 104.52 240.519 104.72 240.139 105.12C239.759 105.51 239.569 106.04 239.569 106.71V111H238.054ZM250.72 114.405L250.36 113.175C250.83 113.075 251.22 112.955 251.53 112.815C251.85 112.675 252.115 112.49 252.325 112.26C252.535 112.04 252.715 111.755 252.865 111.405L253.24 110.52L253.21 111.135L249.925 103.44H251.545L254.095 109.74H253.69L256.24 103.44H257.8L254.335 111.54C254.115 112.04 253.88 112.46 253.63 112.8C253.38 113.14 253.11 113.415 252.82 113.625C252.53 113.835 252.21 114 251.86 114.12C251.51 114.24 251.13 114.335 250.72 114.405ZM262.095 111.135C261.345 111.135 260.695 110.98 260.145 110.67C259.595 110.35 259.17 109.9 258.87 109.32C258.57 108.73 258.42 108.03 258.42 107.22C258.42 106.41 258.57 105.715 258.87 105.135C259.17 104.545 259.595 104.095 260.145 103.785C260.695 103.465 261.345 103.305 262.095 103.305C262.845 103.305 263.495 103.465 264.045 103.785C264.605 104.095 265.035 104.545 265.335 105.135C265.645 105.715 265.8 106.41 265.8 107.22C265.8 108.03 265.645 108.73 265.335 109.32C265.035 109.9 264.605 110.35 264.045 110.67C263.495 110.98 262.845 111.135 262.095 111.135ZM262.095 109.95C262.755 109.95 263.28 109.72 263.67 109.26C264.06 108.8 264.255 108.12 264.255 107.22C264.255 106.32 264.06 105.645 263.67 105.195C263.28 104.735 262.755 104.505 262.095 104.505C261.445 104.505 260.925 104.735 260.535 105.195C260.145 105.645 259.95 106.32 259.95 107.22C259.95 108.12 260.14 108.8 260.52 109.26C260.91 109.72 261.435 109.95 262.095 109.95ZM270.256 111.135C269.346 111.135 268.661 110.89 268.201 110.4C267.751 109.9 267.526 109.135 267.526 108.105V103.44H269.041V108.075C269.041 108.705 269.171 109.17 269.431 109.47C269.691 109.77 270.086 109.92 270.616 109.92C271.216 109.92 271.701 109.72 272.071 109.32C272.441 108.92 272.626 108.39 272.626 107.73V103.44H274.141V111H272.671V109.38H272.866C272.656 109.94 272.321 110.375 271.861 110.685C271.401 110.985 270.866 111.135 270.256 111.135ZM276.33 111V105.315C276.33 105.005 276.32 104.695 276.3 104.385C276.29 104.065 276.27 103.75 276.24 103.44H277.71L277.875 105.39H277.635C277.735 104.92 277.905 104.53 278.145 104.22C278.385 103.91 278.675 103.68 279.015 103.53C279.365 103.38 279.73 103.305 280.11 103.305C280.27 103.305 280.405 103.315 280.515 103.335C280.625 103.345 280.735 103.365 280.845 103.395L280.83 104.745C280.66 104.675 280.51 104.635 280.38 104.625C280.26 104.605 280.11 104.595 279.93 104.595C279.49 104.595 279.115 104.695 278.805 104.895C278.495 105.085 278.26 105.345 278.1 105.675C277.94 106.005 277.86 106.36 277.86 106.74V111H276.33ZM25.11 130V124.255C25.11 123.965 25.095 123.67 25.065 123.37C25.045 123.06 25.02 122.75 24.99 122.44H26.46L26.595 124.03H26.415C26.645 123.47 27 123.045 27.48 122.755C27.96 122.455 28.515 122.305 29.145 122.305C30.035 122.305 30.705 122.55 31.155 123.04C31.615 123.53 31.845 124.29 31.845 125.32V130H30.33V125.41C30.33 124.74 30.195 124.26 29.925 123.97C29.665 123.67 29.265 123.52 28.725 123.52C28.085 123.52 27.575 123.72 27.195 124.12C26.815 124.51 26.625 125.04 26.625 125.71V130H25.11ZM37.4966 130.135C36.2766 130.135 35.3166 129.79 34.6166 129.1C33.9166 128.41 33.5666 127.455 33.5666 126.235C33.5666 125.445 33.7166 124.755 34.0166 124.165C34.3266 123.575 34.7516 123.12 35.2916 122.8C35.8416 122.47 36.4766 122.305 37.1966 122.305C37.9066 122.305 38.5016 122.455 38.9816 122.755C39.4616 123.055 39.8266 123.48 40.0766 124.03C40.3266 124.57 40.4516 125.21 40.4516 125.95V126.43H34.7516V125.56H39.4166L39.1616 125.755C39.1616 125.005 38.9916 124.425 38.6516 124.015C38.3216 123.595 37.8416 123.385 37.2116 123.385C36.5116 123.385 35.9716 123.63 35.5916 124.12C35.2116 124.6 35.0216 125.265 35.0216 126.115V126.265C35.0216 127.155 35.2366 127.825 35.6666 128.275C36.1066 128.725 36.7266 128.95 37.5266 128.95C37.9666 128.95 38.3766 128.89 38.7566 128.77C39.1466 128.64 39.5166 128.43 39.8666 128.14L40.3616 129.175C40.0116 129.485 39.5866 129.725 39.0866 129.895C38.5866 130.055 38.0566 130.135 37.4966 130.135ZM41.0515 130L44.4865 125.74V126.46L41.2315 122.44H43.0465L45.3415 125.395H44.8015L47.0965 122.44H48.8965L45.6715 126.445V125.755L49.0915 130H47.2765L44.8015 126.835H45.3415L42.8515 130H41.0515ZM53.1867 130.135C52.3667 130.135 51.7467 129.915 51.3267 129.475C50.9067 129.025 50.6967 128.355 50.6967 127.465V123.61H49.2267V122.44H50.6967V120.445L52.2117 120.04V122.44H54.3117V123.61H52.2117V127.33C52.2117 127.89 52.3117 128.29 52.5117 128.53C52.7117 128.77 53.0017 128.89 53.3817 128.89C53.5717 128.89 53.7367 128.875 53.8767 128.845C54.0267 128.805 54.1617 128.76 54.2817 128.71V129.94C54.1317 130 53.9567 130.045 53.7567 130.075C53.5567 130.115 53.3667 130.135 53.1867 130.135ZM63.01 130.135C62.25 130.135 61.585 129.98 61.015 129.67C60.455 129.35 60.02 128.895 59.71 128.305C59.41 127.705 59.26 126.995 59.26 126.175C59.26 125.365 59.415 124.67 59.725 124.09C60.035 123.51 60.47 123.07 61.03 122.77C61.59 122.46 62.25 122.305 63.01 122.305C63.5 122.305 63.975 122.39 64.435 122.56C64.895 122.72 65.275 122.95 65.575 123.25L65.08 124.315C64.8 124.045 64.485 123.845 64.135 123.715C63.785 123.575 63.445 123.505 63.115 123.505C62.395 123.505 61.83 123.735 61.42 124.195C61.01 124.655 60.805 125.32 60.805 126.19C60.805 127.07 61.01 127.745 61.42 128.215C61.83 128.685 62.395 128.92 63.115 128.92C63.435 128.92 63.77 128.86 64.12 128.74C64.47 128.61 64.79 128.405 65.08 128.125L65.575 129.19C65.265 129.49 64.875 129.725 64.405 129.895C63.945 130.055 63.48 130.135 63.01 130.135ZM70.2738 130.135C69.5238 130.135 68.8738 129.98 68.3238 129.67C67.7738 129.35 67.3488 128.9 67.0488 128.32C66.7488 127.73 66.5988 127.03 66.5988 126.22C66.5988 125.41 66.7488 124.715 67.0488 124.135C67.3488 123.545 67.7738 123.095 68.3238 122.785C68.8738 122.465 69.5238 122.305 70.2738 122.305C71.0238 122.305 71.6738 122.465 72.2238 122.785C72.7838 123.095 73.2138 123.545 73.5138 124.135C73.8238 124.715 73.9788 125.41 73.9788 126.22C73.9788 127.03 73.8238 127.73 73.5138 128.32C73.2138 128.9 72.7838 129.35 72.2238 129.67C71.6738 129.98 71.0238 130.135 70.2738 130.135ZM70.2738 128.95C70.9338 128.95 71.4588 128.72 71.8488 128.26C72.2388 127.8 72.4338 127.12 72.4338 126.22C72.4338 125.32 72.2388 124.645 71.8488 124.195C71.4588 123.735 70.9338 123.505 70.2738 123.505C69.6238 123.505 69.1038 123.735 68.7138 124.195C68.3238 124.645 68.1288 125.32 68.1288 126.22C68.1288 127.12 68.3188 127.8 68.6988 128.26C69.0888 128.72 69.6138 128.95 70.2738 128.95ZM78.4346 130.135C77.5246 130.135 76.8396 129.89 76.3796 129.4C75.9296 128.9 75.7046 128.135 75.7046 127.105V122.44H77.2196V127.075C77.2196 127.705 77.3496 128.17 77.6096 128.47C77.8696 128.77 78.2646 128.92 78.7946 128.92C79.3946 128.92 79.8796 128.72 80.2496 128.32C80.6196 127.92 80.8046 127.39 80.8046 126.73V122.44H82.3196V130H80.8496V128.38H81.0446C80.8346 128.94 80.4996 129.375 80.0396 129.685C79.5796 129.985 79.0446 130.135 78.4346 130.135ZM84.5087 130V124.315C84.5087 124.005 84.4987 123.695 84.4787 123.385C84.4687 123.065 84.4487 122.75 84.4187 122.44H85.8887L86.0537 124.39H85.8137C85.9137 123.92 86.0837 123.53 86.3237 123.22C86.5637 122.91 86.8537 122.68 87.1937 122.53C87.5437 122.38 87.9087 122.305 88.2887 122.305C88.4487 122.305 88.5837 122.315 88.6937 122.335C88.8037 122.345 88.9137 122.365 89.0237 122.395L89.0087 123.745C88.8387 123.675 88.6887 123.635 88.5587 123.625C88.4387 123.605 88.2887 123.595 88.1087 123.595C87.6687 123.595 87.2937 123.695 86.9837 123.895C86.6737 124.085 86.4387 124.345 86.2787 124.675C86.1187 125.005 86.0387 125.36 86.0387 125.74V130H84.5087ZM92.7148 130.135C92.0848 130.135 91.5048 130.055 90.9748 129.895C90.4448 129.735 90.0048 129.51 89.6548 129.22L90.1198 128.185C90.4898 128.465 90.8998 128.675 91.3498 128.815C91.7998 128.955 92.2598 129.025 92.7298 129.025C93.2798 129.025 93.6948 128.93 93.9748 128.74C94.2548 128.54 94.3948 128.27 94.3948 127.93C94.3948 127.67 94.3048 127.46 94.1248 127.3C93.9548 127.14 93.6698 127.02 93.2698 126.94L91.8298 126.655C91.1898 126.515 90.7048 126.275 90.3748 125.935C90.0448 125.595 89.8798 125.16 89.8798 124.63C89.8798 124.18 89.9998 123.78 90.2398 123.43C90.4898 123.08 90.8398 122.805 91.2898 122.605C91.7498 122.405 92.2848 122.305 92.8948 122.305C93.4548 122.305 93.9748 122.385 94.4548 122.545C94.9348 122.705 95.3348 122.935 95.6548 123.235L95.1748 124.24C94.8648 123.98 94.5148 123.78 94.1248 123.64C93.7348 123.49 93.3398 123.415 92.9398 123.415C92.3798 123.415 91.9648 123.52 91.6948 123.73C91.4248 123.94 91.2898 124.215 91.2898 124.555C91.2898 124.815 91.3698 125.03 91.5298 125.2C91.6998 125.36 91.9648 125.485 92.3248 125.575L93.7648 125.86C94.4448 126 94.9548 126.23 95.2948 126.55C95.6348 126.87 95.8048 127.3 95.8048 127.84C95.8048 128.31 95.6748 128.72 95.4148 129.07C95.1548 129.42 94.7948 129.685 94.3348 129.865C93.8748 130.045 93.3348 130.135 92.7148 130.135ZM101.085 130.135C99.8655 130.135 98.9055 129.79 98.2055 129.1C97.5055 128.41 97.1555 127.455 97.1555 126.235C97.1555 125.445 97.3055 124.755 97.6055 124.165C97.9155 123.575 98.3405 123.12 98.8805 122.8C99.4305 122.47 100.065 122.305 100.785 122.305C101.495 122.305 102.09 122.455 102.57 122.755C103.05 123.055 103.415 123.48 103.665 124.03C103.915 124.57 104.04 125.21 104.04 125.95V126.43H98.3405V125.56H103.005L102.75 125.755C102.75 125.005 102.58 124.425 102.24 124.015C101.91 123.595 101.43 123.385 100.8 123.385C100.1 123.385 99.5605 123.63 99.1805 124.12C98.8005 124.6 98.6105 125.265 98.6105 126.115V126.265C98.6105 127.155 98.8255 127.825 99.2555 128.275C99.6955 128.725 100.315 128.95 101.115 128.95C101.555 128.95 101.965 128.89 102.345 128.77C102.735 128.64 103.105 128.43 103.455 128.14L103.95 129.175C103.6 129.485 103.175 129.725 102.675 129.895C102.175 130.055 101.645 130.135 101.085 130.135Z" fill="#FAFAFA"/>
<path d="M344.362 122V109.688H352.658V111.452H346.528V114.857H352.256V116.638H346.528V120.219H352.658V122H344.362ZM353.212 122L357.316 116.953V117.948L353.439 113.181H356.024L358.556 116.446H357.77L360.302 113.181H362.87L359.027 117.948V116.953L363.114 122H360.512L357.77 118.49H358.556L355.797 122H353.212ZM367.931 122.175C366.883 122.175 366.092 121.901 365.556 121.354C365.021 120.807 364.753 119.986 364.753 118.891V114.822H363.059V113.181H364.753V110.928L366.936 110.369V113.181H369.293V114.822H366.936V118.752C366.936 119.357 367.052 119.782 367.285 120.027C367.518 120.271 367.838 120.393 368.246 120.393C368.467 120.393 368.653 120.376 368.804 120.341C368.967 120.306 369.125 120.259 369.276 120.201V121.93C369.078 122.012 368.857 122.07 368.612 122.105C368.379 122.151 368.152 122.175 367.931 122.175ZM370.759 122V115.433C370.759 115.061 370.747 114.682 370.724 114.298C370.712 113.914 370.683 113.541 370.637 113.181H372.75L372.994 115.591H372.645C372.761 115.008 372.954 114.525 373.221 114.141C373.501 113.757 373.838 113.472 374.234 113.285C374.63 113.099 375.061 113.006 375.527 113.006C375.736 113.006 375.905 113.018 376.033 113.041C376.161 113.052 376.289 113.082 376.417 113.128L376.4 115.049C376.179 114.956 375.986 114.898 375.823 114.875C375.672 114.851 375.48 114.84 375.247 114.84C374.747 114.84 374.322 114.944 373.972 115.154C373.635 115.364 373.378 115.655 373.204 116.027C373.041 116.4 372.959 116.825 372.959 117.302V122H370.759ZM380.953 122.175C380.184 122.175 379.509 121.994 378.927 121.633C378.345 121.261 377.891 120.731 377.565 120.044C377.239 119.357 377.076 118.536 377.076 117.582C377.076 116.627 377.239 115.812 377.565 115.137C377.891 114.45 378.345 113.926 378.927 113.565C379.509 113.192 380.184 113.006 380.953 113.006C381.698 113.006 382.35 113.192 382.909 113.565C383.479 113.926 383.858 114.415 384.044 115.032H383.852L384.044 113.181H386.14C386.105 113.541 386.07 113.908 386.035 114.281C386.011 114.653 386 115.02 386 115.381V122H383.834L383.817 120.184H384.026C383.84 120.789 383.462 121.272 382.891 121.633C382.321 121.994 381.675 122.175 380.953 122.175ZM381.564 120.498C382.251 120.498 382.804 120.259 383.223 119.782C383.642 119.293 383.852 118.56 383.852 117.582C383.852 116.604 383.642 115.876 383.223 115.398C382.804 114.921 382.251 114.682 381.564 114.682C380.877 114.682 380.324 114.921 379.905 115.398C379.486 115.876 379.276 116.604 379.276 117.582C379.276 118.56 379.48 119.293 379.887 119.782C380.306 120.259 380.865 120.498 381.564 120.498ZM393.344 122V109.688H397.815C399.224 109.688 400.411 109.932 401.378 110.421C402.356 110.899 403.095 111.597 403.596 112.517C404.096 113.425 404.347 114.531 404.347 115.835C404.347 117.127 404.096 118.234 403.596 119.153C403.095 120.073 402.356 120.777 401.378 121.266C400.411 121.755 399.224 122 397.815 122H393.344ZM395.597 120.131H397.675C399.166 120.131 400.272 119.776 400.993 119.066C401.715 118.356 402.076 117.279 402.076 115.835C402.076 114.38 401.715 113.303 400.993 112.604C400.272 111.894 399.166 111.539 397.675 111.539H395.597V120.131ZM406.472 122V113.181H408.655V122H406.472ZM406.35 111.521V109.391H408.778V111.521H406.35ZM414.17 122.175C413.413 122.175 412.714 122.087 412.074 121.913C411.445 121.726 410.915 121.47 410.485 121.144L411.096 119.677C411.538 119.98 412.027 120.213 412.563 120.376C413.098 120.539 413.64 120.62 414.187 120.62C414.769 120.62 415.2 120.521 415.479 120.323C415.771 120.125 415.916 119.858 415.916 119.52C415.916 119.252 415.823 119.043 415.637 118.891C415.462 118.728 415.177 118.606 414.781 118.525L413.034 118.193C412.289 118.03 411.719 117.75 411.323 117.354C410.939 116.959 410.747 116.441 410.747 115.8C410.747 115.253 410.892 114.77 411.183 114.351C411.486 113.931 411.911 113.605 412.458 113.373C413.017 113.128 413.669 113.006 414.414 113.006C415.066 113.006 415.677 113.093 416.248 113.268C416.83 113.442 417.319 113.704 417.715 114.054L417.086 115.468C416.725 115.177 416.312 114.95 415.846 114.787C415.38 114.624 414.926 114.543 414.484 114.543C413.879 114.543 413.436 114.653 413.157 114.875C412.877 115.084 412.738 115.358 412.738 115.695C412.738 115.952 412.819 116.167 412.982 116.342C413.157 116.505 413.424 116.627 413.785 116.708L415.532 117.04C416.312 117.191 416.9 117.459 417.296 117.843C417.703 118.216 417.907 118.728 417.907 119.38C417.907 119.962 417.75 120.463 417.435 120.882C417.121 121.301 416.684 121.622 416.126 121.843C415.567 122.064 414.915 122.175 414.17 122.175ZM423.827 122.175C422.919 122.175 422.121 121.988 421.434 121.616C420.759 121.243 420.235 120.713 419.863 120.027C419.49 119.328 419.304 118.501 419.304 117.547C419.304 116.592 419.49 115.777 419.863 115.102C420.247 114.426 420.777 113.908 421.452 113.547C422.127 113.186 422.919 113.006 423.827 113.006C424.409 113.006 424.974 113.099 425.521 113.285C426.08 113.46 426.534 113.716 426.883 114.054L426.22 115.573C425.905 115.282 425.55 115.067 425.154 114.927C424.77 114.776 424.392 114.7 424.019 114.7C423.239 114.7 422.628 114.944 422.185 115.433C421.755 115.922 421.539 116.633 421.539 117.564C421.539 118.495 421.755 119.212 422.185 119.712C422.628 120.213 423.239 120.463 424.019 120.463C424.38 120.463 424.753 120.393 425.137 120.254C425.533 120.114 425.894 119.898 426.22 119.607L426.883 121.109C426.522 121.447 426.062 121.709 425.504 121.895C424.956 122.082 424.397 122.175 423.827 122.175ZM432.387 122.175C431.479 122.175 430.693 121.988 430.029 121.616C429.366 121.243 428.848 120.713 428.475 120.027C428.114 119.34 427.934 118.525 427.934 117.582C427.934 116.638 428.114 115.829 428.475 115.154C428.848 114.467 429.366 113.937 430.029 113.565C430.693 113.192 431.479 113.006 432.387 113.006C433.295 113.006 434.081 113.192 434.745 113.565C435.42 113.937 435.938 114.467 436.299 115.154C436.672 115.829 436.858 116.638 436.858 117.582C436.858 118.525 436.672 119.34 436.299 120.027C435.938 120.713 435.42 121.243 434.745 121.616C434.081 121.988 433.295 122.175 432.387 122.175ZM432.387 120.498C433.074 120.498 433.621 120.259 434.029 119.782C434.436 119.293 434.64 118.56 434.64 117.582C434.64 116.604 434.436 115.876 434.029 115.398C433.621 114.921 433.074 114.682 432.387 114.682C431.7 114.682 431.153 114.921 430.745 115.398C430.338 115.876 430.134 116.604 430.134 117.582C430.134 118.56 430.338 119.293 430.745 119.782C431.153 120.259 431.7 120.498 432.387 120.498ZM441.919 122.175C440.836 122.175 440.027 121.878 439.491 121.284C438.956 120.69 438.688 119.782 438.688 118.56V113.181H440.871V118.542C440.871 119.194 441.005 119.677 441.273 119.992C441.541 120.294 441.948 120.446 442.495 120.446C443.112 120.446 443.613 120.236 443.997 119.817C444.393 119.398 444.591 118.845 444.591 118.158V113.181H446.774V122H444.643V120.201H444.888C444.632 120.83 444.242 121.319 443.718 121.668C443.205 122.006 442.606 122.175 441.919 122.175ZM449.144 122V115.381C449.144 115.02 449.132 114.653 449.109 114.281C449.086 113.908 449.051 113.541 449.004 113.181H451.117L451.292 114.927H451.082C451.362 114.31 451.775 113.838 452.322 113.512C452.87 113.175 453.504 113.006 454.226 113.006C455.262 113.006 456.042 113.297 456.566 113.879C457.09 114.461 457.352 115.369 457.352 116.604V122H455.169V116.708C455.169 115.998 455.029 115.492 454.75 115.189C454.482 114.875 454.075 114.717 453.527 114.717C452.852 114.717 452.317 114.927 451.921 115.346C451.525 115.765 451.327 116.324 451.327 117.023V122H449.144ZM463.439 122.175C462.391 122.175 461.6 121.901 461.064 121.354C460.528 120.807 460.261 119.986 460.261 118.891V114.822H458.567V113.181H460.261V110.928L462.444 110.369V113.181H464.801V114.822H462.444V118.752C462.444 119.357 462.56 119.782 462.793 120.027C463.026 120.271 463.346 120.393 463.754 120.393C463.975 120.393 464.161 120.376 464.312 120.341C464.475 120.306 464.633 120.259 464.784 120.201V121.93C464.586 122.012 464.365 122.07 464.12 122.105C463.887 122.151 463.66 122.175 463.439 122.175Z" fill="#FAFAFA"/>
<path d="M367.115 31.7902L367.77 32.3318C368.57 31.3625 368.437 29.9206 367.465 29.1185L366.923 29.774C367.533 30.2773 367.618 31.1805 367.115 31.7902Z" fill="#633EA8"/>
<path d="M62.7253 7.45184C64.7756 7.45184 66.4512 5.7873 66.4512 3.72592C66.4512 1.66454 64.7866 0 62.7253 0C60.6639 0 58.9993 1.66454 58.9993 3.72592C58.9993 5.7873 60.6639 7.45184 62.7253 7.45184ZM62.7253 2.1165C63.6181 2.1165 64.3347 2.83302 64.3347 3.72592C64.3347 4.61882 63.6181 5.33534 62.7253 5.33534C61.8324 5.33534 61.1158 4.61882 61.1158 3.72592C61.1158 2.83302 61.8324 2.1165 62.7253 2.1165Z" fill="url(#paint5_linear_346_22510)"/>
<path d="M75.5359 121.489C75.8004 120.649 75.3341 119.747 74.4888 119.481C73.6435 119.215 72.7462 119.683 72.4802 120.528C72.2142 121.373 72.682 122.27 73.5273 122.536C74.3726 122.802 75.2699 122.335 75.5359 121.489ZM73.3481 120.801C73.4633 120.435 73.8496 120.233 74.2157 120.349C74.5818 120.464 74.7832 120.85 74.668 121.216C74.5528 121.582 74.1665 121.784 73.8004 121.669C73.4342 121.553 73.2329 121.167 73.3481 120.801Z" fill="url(#paint6_linear_346_22510)"/>
<path d="M338 160.001C339.1 160.001 340 159.107 340 158C340 156.894 339.106 156 338 156C336.893 156 335.999 156.894 335.999 158C335.999 159.107 336.893 160.001 338 160.001ZM338 157.136C338.479 157.136 338.864 157.521 338.864 158C338.864 158.48 338.479 158.864 338 158.864C337.52 158.864 337.136 158.48 337.136 158C337.136 157.521 337.52 157.136 338 157.136Z" fill="url(#paint7_linear_346_22510)"/>
<path d="M192.5 135.001C193.876 135.001 195 133.884 195 132.5C195 131.117 193.883 130 192.5 130C191.116 130 189.999 131.117 189.999 132.5C189.999 133.884 191.116 135.001 192.5 135.001ZM192.5 131.42C193.099 131.42 193.58 131.901 193.58 132.5C193.58 133.1 193.099 133.58 192.5 133.58C191.9 133.58 191.42 133.1 191.42 132.5C191.42 131.901 191.9 131.42 192.5 131.42Z" fill="url(#paint8_linear_346_22510)"/>
<path d="M12.7934 38.8199C12.3549 38.4926 12.2637 37.8724 12.5892 37.4327C12.9158 36.9916 13.5381 36.8989 13.979 37.2256L14.7661 37.8087C15.2545 38.1705 15.9436 38.0688 16.3065 37.5812L16.8866 36.8019C17.2166 36.3586 17.843 36.2659 18.2872 36.5946C18.7348 36.9257 18.8269 37.5581 18.4924 38.0031L17.9146 38.7717C17.5469 39.2607 17.6479 39.9556 18.1395 40.3198L18.91 40.8907C19.3547 41.2201 19.446 41.8487 19.1135 42.291C18.7842 42.729 18.1632 42.8192 17.7229 42.493L16.933 41.9077C16.4446 41.5459 15.7554 41.6476 15.3925 42.1352L14.8127 42.9141C14.4831 43.3569 13.8566 43.4479 13.4146 43.1172C12.9742 42.7876 12.8835 42.1638 13.212 41.7225L13.7941 40.9406C14.1573 40.4526 14.0567 39.7628 13.5692 39.3989L12.7934 38.8199Z" fill="url(#paint9_linear_346_22510)"/>
<path d="M89.7934 60.8199C89.3549 60.4926 89.2637 59.8724 89.5892 59.4327C89.9158 58.9916 90.5381 58.8989 90.979 59.2256L91.8481 59.8695C92.2912 60.1977 92.9163 60.1054 93.2456 59.6631L93.8882 58.7998C94.2173 58.3577 94.8442 58.2668 95.2872 58.5946C95.7336 58.9248 95.8276 59.5571 95.494 60.001L94.8527 60.854C94.5192 61.2977 94.6107 61.928 95.0567 62.2584L95.91 62.8907C96.3547 63.2201 96.446 63.8487 96.1135 64.291C95.7842 64.729 95.1632 64.8192 94.7229 64.493L93.8509 63.8469C93.4079 63.5187 92.7827 63.611 92.4535 64.0533L91.8127 64.9141C91.4831 65.3569 90.8566 65.4479 90.4146 65.1172C89.9742 64.7876 89.8835 64.1638 90.212 63.7225L90.8551 62.8586C91.1846 62.416 91.0933 61.7901 90.6511 61.4601L89.7934 60.8199Z" fill="url(#paint10_linear_346_22510)"/>
<path d="M126.793 172.82C126.355 172.493 126.264 171.872 126.589 171.433C126.916 170.992 127.538 170.899 127.979 171.226L128.766 171.809C129.254 172.171 129.944 172.069 130.307 171.581L130.887 170.802C131.217 170.359 131.843 170.266 132.287 170.595C132.735 170.926 132.827 171.558 132.492 172.003L131.915 172.772C131.547 173.261 131.648 173.956 132.139 174.32L132.91 174.891C133.355 175.22 133.446 175.849 133.113 176.291C132.784 176.729 132.163 176.819 131.723 176.493L130.933 175.908C130.445 175.546 129.755 175.648 129.392 176.135L128.813 176.914C128.483 177.357 127.857 177.448 127.415 177.117C126.974 176.788 126.884 176.164 127.212 175.723L127.794 174.941C128.157 174.453 128.057 173.763 127.569 173.399L126.793 172.82Z" fill="url(#paint11_linear_346_22510)"/>
<path d="M229.793 24.8199C229.355 24.4926 229.264 23.8724 229.589 23.4327C229.916 22.9916 230.538 22.8989 230.979 23.2256L231.766 23.8087C232.254 24.1705 232.944 24.0688 233.307 23.5812L233.887 22.8019C234.217 22.3586 234.843 22.2659 235.287 22.5946C235.735 22.9257 235.827 23.5581 235.492 24.0031L234.915 24.7717C234.547 25.2607 234.648 25.9556 235.139 26.3198L235.91 26.8907C236.355 27.2201 236.446 27.8487 236.113 28.291C235.784 28.729 235.163 28.8192 234.723 28.493L233.933 27.9077C233.445 27.5459 232.755 27.6476 232.392 28.1352L231.813 28.9141C231.483 29.3569 230.857 29.4479 230.415 29.1172C229.974 28.7876 229.884 28.1638 230.212 27.7225L230.794 26.9406C231.157 26.4526 231.057 25.7628 230.569 25.3989L229.793 24.8199Z" fill="url(#paint12_linear_346_22510)"/>
<path d="M25.7368 174.523C25.2983 174.196 25.207 173.576 25.5326 173.136C25.8591 172.695 26.4814 172.602 26.9224 172.929L27.7094 173.512C28.1978 173.874 28.887 173.772 29.2499 173.284L29.83 172.505C30.16 172.062 30.7864 171.969 31.2306 172.298C31.6782 172.629 31.7703 173.261 31.4357 173.706L30.8579 174.475C30.4903 174.964 30.5912 175.659 31.0828 176.023L31.8534 176.594C32.298 176.923 32.3894 177.552 32.0568 177.994C31.7276 178.432 31.1065 178.522 30.6663 178.196L29.8763 177.611C29.3879 177.249 28.6988 177.351 28.3358 177.838L27.7561 178.617C27.4264 179.06 26.7999 179.151 26.358 178.82C25.9175 178.491 25.8269 177.867 26.1554 177.426L26.7375 176.644C27.1007 176.156 27 175.466 26.5126 175.102L25.7368 174.523Z" fill="url(#paint13_linear_346_22510)"/>
<path fill-rule="evenodd" clip-rule="evenodd" d="M151.477 42.5225C151.611 42.9424 152.06 43.1741 152.48 43.0401L161.012 40.3168C161.432 40.1828 161.664 39.7337 161.53 39.3138C161.396 38.8939 160.947 38.6622 160.527 38.7962L151.995 41.5195C151.575 41.6535 151.343 42.1026 151.477 42.5225Z" fill="url(#paint14_linear_346_22510)"/>
<path fill-rule="evenodd" clip-rule="evenodd" d="M273.592 174.253C273.871 173.912 273.82 173.409 273.479 173.13L266.539 167.468C266.198 167.189 265.695 167.24 265.417 167.581C265.138 167.923 265.189 168.426 265.53 168.704L272.469 174.367C272.811 174.646 273.314 174.595 273.592 174.253Z" fill="url(#paint15_linear_346_22510)"/>
<path fill-rule="evenodd" clip-rule="evenodd" d="M306.954 30.5147C306.76 30.7487 306.793 31.0953 307.027 31.2889L311.782 35.2223C312.016 35.4159 312.363 35.3831 312.556 35.1491C312.75 34.9151 312.717 34.5685 312.483 34.375L307.728 30.4415C307.494 30.2479 307.148 30.2807 306.954 30.5147Z" fill="url(#paint16_linear_346_22510)"/>
<path d="M0.78 164V156.95H3.34C4.14667 156.95 4.82667 157.09 5.38 157.37C5.94 157.643 6.36333 158.043 6.65 158.57C6.93667 159.09 7.08 159.723 7.08 160.47C7.08 161.21 6.93667 161.843 6.65 162.37C6.36333 162.897 5.94 163.3 5.38 163.58C4.82667 163.86 4.14667 164 3.34 164H0.78ZM2.07 162.93H3.26C4.11333 162.93 4.74667 162.727 5.16 162.32C5.57333 161.913 5.78 161.297 5.78 160.47C5.78 159.637 5.57333 159.02 5.16 158.62C4.74667 158.213 4.11333 158.01 3.26 158.01H2.07V162.93ZM8.29719 164V158.95H9.54719V164H8.29719ZM8.22719 158V156.78H9.61719V158H8.22719ZM12.7046 164.1C12.2713 164.1 11.8713 164.05 11.5046 163.95C11.1446 163.843 10.8413 163.697 10.5946 163.51L10.9446 162.67C11.1979 162.843 11.4779 162.977 11.7846 163.07C12.0913 163.163 12.4013 163.21 12.7146 163.21C13.0479 163.21 13.2946 163.153 13.4546 163.04C13.6213 162.927 13.7046 162.773 13.7046 162.58C13.7046 162.427 13.6513 162.307 13.5446 162.22C13.4446 162.127 13.2813 162.057 13.0546 162.01L12.0546 161.82C11.6279 161.727 11.3013 161.567 11.0746 161.34C10.8546 161.113 10.7446 160.817 10.7446 160.45C10.7446 160.137 10.8279 159.86 10.9946 159.62C11.1679 159.38 11.4113 159.193 11.7246 159.06C12.0446 158.92 12.4179 158.85 12.8446 158.85C13.2179 158.85 13.5679 158.9 13.8946 159C14.2279 159.1 14.5079 159.25 14.7346 159.45L14.3746 160.26C14.1679 160.093 13.9313 159.963 13.6646 159.87C13.3979 159.777 13.1379 159.73 12.8846 159.73C12.5379 159.73 12.2846 159.793 12.1246 159.92C11.9646 160.04 11.8846 160.197 11.8846 160.39C11.8846 160.537 11.9313 160.66 12.0246 160.76C12.1246 160.853 12.2779 160.923 12.4846 160.97L13.4846 161.16C13.9313 161.247 14.2679 161.4 14.4946 161.62C14.7279 161.833 14.8446 162.127 14.8446 162.5C14.8446 162.833 14.7546 163.12 14.5746 163.36C14.3946 163.6 14.1446 163.783 13.8246 163.91C13.5046 164.037 13.1313 164.1 12.7046 164.1ZM18.2344 164.1C17.7144 164.1 17.2577 163.993 16.8644 163.78C16.4777 163.567 16.1777 163.263 15.9644 162.87C15.751 162.47 15.6444 161.997 15.6444 161.45C15.6444 160.903 15.751 160.437 15.9644 160.05C16.1844 159.663 16.4877 159.367 16.8744 159.16C17.261 158.953 17.7144 158.85 18.2344 158.85C18.5677 158.85 18.891 158.903 19.2044 159.01C19.5244 159.11 19.7844 159.257 19.9844 159.45L19.6044 160.32C19.4244 160.153 19.221 160.03 18.9944 159.95C18.7744 159.863 18.5577 159.82 18.3444 159.82C17.8977 159.82 17.5477 159.96 17.2944 160.24C17.0477 160.52 16.9244 160.927 16.9244 161.46C16.9244 161.993 17.0477 162.403 17.2944 162.69C17.5477 162.977 17.8977 163.12 18.3444 163.12C18.551 163.12 18.7644 163.08 18.9844 163C19.211 162.92 19.4177 162.797 19.6044 162.63L19.9844 163.49C19.7777 163.683 19.5144 163.833 19.1944 163.94C18.881 164.047 18.561 164.1 18.2344 164.1ZM23.1358 164.1C22.6158 164.1 22.1658 163.993 21.7858 163.78C21.4058 163.567 21.1091 163.263 20.8958 162.87C20.6891 162.477 20.5858 162.01 20.5858 161.47C20.5858 160.93 20.6891 160.467 20.8958 160.08C21.1091 159.687 21.4058 159.383 21.7858 159.17C22.1658 158.957 22.6158 158.85 23.1358 158.85C23.6558 158.85 24.1058 158.957 24.4858 159.17C24.8724 159.383 25.1691 159.687 25.3758 160.08C25.5891 160.467 25.6958 160.93 25.6958 161.47C25.6958 162.01 25.5891 162.477 25.3758 162.87C25.1691 163.263 24.8724 163.567 24.4858 163.78C24.1058 163.993 23.6558 164.1 23.1358 164.1ZM23.1358 163.14C23.5291 163.14 23.8424 163.003 24.0758 162.73C24.3091 162.45 24.4258 162.03 24.4258 161.47C24.4258 160.91 24.3091 160.493 24.0758 160.22C23.8424 159.947 23.5291 159.81 23.1358 159.81C22.7424 159.81 22.4291 159.947 22.1958 160.22C21.9624 160.493 21.8458 160.91 21.8458 161.47C21.8458 162.03 21.9624 162.45 22.1958 162.73C22.4291 163.003 22.7424 163.14 23.1358 163.14ZM28.5938 164.1C27.9738 164.1 27.5104 163.93 27.2038 163.59C26.8971 163.25 26.7438 162.73 26.7438 162.03V158.95H27.9938V162.02C27.9938 162.393 28.0704 162.67 28.2238 162.85C28.3771 163.023 28.6104 163.11 28.9238 163.11C29.2771 163.11 29.5638 162.99 29.7838 162.75C30.0104 162.51 30.1238 162.193 30.1238 161.8V158.95H31.3737V164H30.1538V162.97H30.2938C30.1471 163.33 29.9238 163.61 29.6238 163.81C29.3304 164.003 28.9871 164.1 28.5938 164.1ZM32.7308 164V160.21C32.7308 160.003 32.7241 159.793 32.7108 159.58C32.6974 159.367 32.6774 159.157 32.6508 158.95H33.8608L33.9608 159.95H33.8408C34.0008 159.597 34.2374 159.327 34.5508 159.14C34.8641 158.947 35.2274 158.85 35.6408 158.85C36.2341 158.85 36.6808 159.017 36.9808 159.35C37.2808 159.683 37.4308 160.203 37.4308 160.91V164H36.1808V160.97C36.1808 160.563 36.1008 160.273 35.9408 160.1C35.7874 159.92 35.5541 159.83 35.2408 159.83C34.8541 159.83 34.5474 159.95 34.3208 160.19C34.0941 160.43 33.9808 160.75 33.9808 161.15V164H32.7308ZM40.9162 164.1C40.3162 164.1 39.8628 163.943 39.5562 163.63C39.2495 163.317 39.0962 162.847 39.0962 162.22V159.89H38.1262V158.95H39.0962V157.66L40.3462 157.34V158.95H41.6962V159.89H40.3462V162.14C40.3462 162.487 40.4128 162.73 40.5462 162.87C40.6795 163.01 40.8628 163.08 41.0962 163.08C41.2228 163.08 41.3295 163.07 41.4162 163.05C41.5095 163.03 41.5995 163.003 41.6862 162.97V163.96C41.5728 164.007 41.4462 164.04 41.3062 164.06C41.1728 164.087 41.0428 164.1 40.9162 164.1ZM47.6094 164.1C47.0894 164.1 46.6327 163.993 46.2394 163.78C45.8527 163.567 45.5527 163.263 45.3394 162.87C45.126 162.47 45.0194 161.997 45.0194 161.45C45.0194 160.903 45.126 160.437 45.3394 160.05C45.5594 159.663 45.8627 159.367 46.2494 159.16C46.636 158.953 47.0894 158.85 47.6094 158.85C47.9427 158.85 48.266 158.903 48.5794 159.01C48.8994 159.11 49.1594 159.257 49.3594 159.45L48.9794 160.32C48.7994 160.153 48.596 160.03 48.3694 159.95C48.1494 159.863 47.9327 159.82 47.7194 159.82C47.2727 159.82 46.9227 159.96 46.6694 160.24C46.4227 160.52 46.2994 160.927 46.2994 161.46C46.2994 161.993 46.4227 162.403 46.6694 162.69C46.9227 162.977 47.2727 163.12 47.7194 163.12C47.926 163.12 48.1394 163.08 48.3594 163C48.586 162.92 48.7927 162.797 48.9794 162.63L49.3594 163.49C49.1527 163.683 48.8894 163.833 48.5694 163.94C48.256 164.047 47.936 164.1 47.6094 164.1ZM52.5108 164.1C51.9908 164.1 51.5408 163.993 51.1608 163.78C50.7808 163.567 50.4841 163.263 50.2708 162.87C50.0641 162.477 49.9608 162.01 49.9608 161.47C49.9608 160.93 50.0641 160.467 50.2708 160.08C50.4841 159.687 50.7808 159.383 51.1608 159.17C51.5408 158.957 51.9908 158.85 52.5108 158.85C53.0308 158.85 53.4808 158.957 53.8608 159.17C54.2474 159.383 54.5441 159.687 54.7508 160.08C54.9641 160.467 55.0708 160.93 55.0708 161.47C55.0708 162.01 54.9641 162.477 54.7508 162.87C54.5441 163.263 54.2474 163.567 53.8608 163.78C53.4808 163.993 53.0308 164.1 52.5108 164.1ZM52.5108 163.14C52.9041 163.14 53.2174 163.003 53.4508 162.73C53.6841 162.45 53.8008 162.03 53.8008 161.47C53.8008 160.91 53.6841 160.493 53.4508 160.22C53.2174 159.947 52.9041 159.81 52.5108 159.81C52.1174 159.81 51.8041 159.947 51.5708 160.22C51.3374 160.493 51.2208 160.91 51.2208 161.47C51.2208 162.03 51.3374 162.45 51.5708 162.73C51.8041 163.003 52.1174 163.14 52.5108 163.14ZM58.1087 164.1C57.6688 164.1 57.2788 163.997 56.9387 163.79C56.6054 163.577 56.3454 163.273 56.1588 162.88C55.9721 162.487 55.8788 162.017 55.8788 161.47C55.8788 160.923 55.9721 160.457 56.1588 160.07C56.3454 159.677 56.6054 159.377 56.9387 159.17C57.2788 158.957 57.6688 158.85 58.1087 158.85C58.5288 158.85 58.8988 158.953 59.2188 159.16C59.5454 159.36 59.7621 159.633 59.8688 159.98H59.7388V156.64H60.9888V164H59.7588V162.93H59.8788C59.7721 163.29 59.5554 163.577 59.2288 163.79C58.9088 163.997 58.5354 164.1 58.1087 164.1ZM58.4588 163.14C58.8521 163.14 59.1688 163.003 59.4088 162.73C59.6488 162.45 59.7688 162.03 59.7688 161.47C59.7688 160.91 59.6488 160.493 59.4088 160.22C59.1688 159.947 58.8521 159.81 58.4588 159.81C58.0654 159.81 57.7454 159.947 57.4988 160.22C57.2588 160.493 57.1388 160.91 57.1388 161.47C57.1388 162.03 57.2588 162.45 57.4988 162.73C57.7454 163.003 58.0654 163.14 58.4588 163.14ZM64.7899 164.1C63.9433 164.1 63.2799 163.867 62.7999 163.4C62.3199 162.933 62.0799 162.293 62.0799 161.48C62.0799 160.953 62.1833 160.493 62.3899 160.1C62.5966 159.707 62.8833 159.4 63.2499 159.18C63.6233 158.96 64.0566 158.85 64.5499 158.85C65.0366 158.85 65.4433 158.953 65.7699 159.16C66.0966 159.367 66.3433 159.657 66.5099 160.03C66.6833 160.403 66.7699 160.84 66.7699 161.34V161.67H63.0899V161.01H65.8799L65.7099 161.15C65.7099 160.683 65.6099 160.327 65.4099 160.08C65.2166 159.833 64.9333 159.71 64.5599 159.71C64.1466 159.71 63.8266 159.857 63.5999 160.15C63.3799 160.443 63.2699 160.853 63.2699 161.38V161.51C63.2699 162.057 63.4033 162.467 63.6699 162.74C63.9433 163.007 64.3266 163.14 64.8199 163.14C65.1066 163.14 65.3733 163.103 65.6199 163.03C65.8733 162.95 66.1133 162.823 66.3399 162.65L66.7099 163.49C66.4699 163.683 66.1833 163.833 65.8499 163.94C65.5166 164.047 65.1633 164.1 64.7899 164.1ZM71.9726 164L70.0026 158.95H71.2926L72.7126 162.88H72.4526L73.8926 158.95H74.7826L76.2126 162.88H75.9826L77.3926 158.95H78.6126L76.6426 164H75.5426L74.0326 159.98H74.5626L73.0826 164H71.9726ZM79.4007 164V158.95H80.6507V164H79.4007ZM79.3307 158V156.78H80.7207V158H79.3307ZM82.0081 164V156.64H83.2581V164H82.0081ZM84.6155 164V156.64H85.8655V164H84.6155ZM92.8571 164.1C92.4304 164.1 92.0571 163.997 91.7371 163.79C91.4171 163.577 91.2038 163.29 91.0971 162.93H91.2071V164H89.9671V156.64H91.2171V159.98H91.0971C91.2104 159.633 91.4271 159.36 91.7471 159.16C92.0671 158.953 92.4371 158.85 92.8571 158.85C93.3038 158.85 93.6938 158.957 94.0271 159.17C94.3604 159.383 94.6204 159.687 94.8071 160.08C94.9938 160.467 95.0871 160.933 95.0871 161.48C95.0871 162.027 94.9938 162.497 94.8071 162.89C94.6204 163.277 94.3571 163.577 94.0171 163.79C93.6838 163.997 93.2971 164.1 92.8571 164.1ZM92.5071 163.14C92.9004 163.14 93.2171 163.003 93.4571 162.73C93.7038 162.457 93.8271 162.04 93.8271 161.48C93.8271 160.92 93.7038 160.503 93.4571 160.23C93.2171 159.95 92.9004 159.81 92.5071 159.81C92.1138 159.81 91.7971 159.947 91.5571 160.22C91.3171 160.493 91.1971 160.91 91.1971 161.47C91.1971 162.03 91.3171 162.45 91.5571 162.73C91.7971 163.003 92.1138 163.14 92.5071 163.14ZM98.6083 164.1C97.7616 164.1 97.0983 163.867 96.6183 163.4C96.1383 162.933 95.8983 162.293 95.8983 161.48C95.8983 160.953 96.0016 160.493 96.2083 160.1C96.4149 159.707 96.7016 159.4 97.0683 159.18C97.4416 158.96 97.8749 158.85 98.3683 158.85C98.8549 158.85 99.2616 158.953 99.5883 159.16C99.9149 159.367 100.162 159.657 100.328 160.03C100.502 160.403 100.588 160.84 100.588 161.34V161.67H96.9083V161.01H99.6983L99.5283 161.15C99.5283 160.683 99.4283 160.327 99.2283 160.08C99.0349 159.833 98.7516 159.71 98.3783 159.71C97.9649 159.71 97.6449 159.857 97.4183 160.15C97.1983 160.443 97.0883 160.853 97.0883 161.38V161.51C97.0883 162.057 97.2216 162.467 97.4883 162.74C97.7616 163.007 98.1449 163.14 98.6383 163.14C98.9249 163.14 99.1916 163.103 99.4383 163.03C99.6916 162.95 99.9316 162.823 100.158 162.65L100.528 163.49C100.288 163.683 100.002 163.833 99.6683 163.94C99.3349 164.047 98.9816 164.1 98.6083 164.1ZM106.341 164.1C105.901 164.1 105.514 163.997 105.181 163.79C104.848 163.577 104.588 163.273 104.401 162.88C104.214 162.487 104.121 162.017 104.121 161.47C104.121 160.923 104.214 160.457 104.401 160.07C104.588 159.677 104.848 159.377 105.181 159.17C105.514 158.957 105.901 158.85 106.341 158.85C106.768 158.85 107.141 158.957 107.461 159.17C107.788 159.377 108.004 159.657 108.111 160.01H108.001L108.111 158.95H109.311C109.291 159.157 109.271 159.367 109.251 159.58C109.238 159.793 109.231 160.003 109.231 160.21V164H107.991L107.981 162.96H108.101C107.994 163.307 107.778 163.583 107.451 163.79C107.124 163.997 106.754 164.1 106.341 164.1ZM106.691 163.14C107.084 163.14 107.401 163.003 107.641 162.73C107.881 162.45 108.001 162.03 108.001 161.47C108.001 160.91 107.881 160.493 107.641 160.22C107.401 159.947 107.084 159.81 106.691 159.81C106.298 159.81 105.981 159.947 105.741 160.22C105.501 160.493 105.381 160.91 105.381 161.47C105.381 162.03 105.498 162.45 105.731 162.73C105.971 163.003 106.291 163.14 106.691 163.14ZM112.412 164.1C111.792 164.1 111.329 163.93 111.022 163.59C110.715 163.25 110.562 162.73 110.562 162.03V158.95H111.812V162.02C111.812 162.393 111.889 162.67 112.042 162.85C112.195 163.023 112.429 163.11 112.742 163.11C113.095 163.11 113.382 162.99 113.602 162.75C113.829 162.51 113.942 162.193 113.942 161.8V158.95H115.192V164H113.972V162.97H114.112C113.965 163.33 113.742 163.61 113.442 163.81C113.149 164.003 112.805 164.1 112.412 164.1ZM118.709 164.1C118.109 164.1 117.656 163.943 117.349 163.63C117.042 163.317 116.889 162.847 116.889 162.22V159.89H115.919V158.95H116.889V157.66L118.139 157.34V158.95H119.489V159.89H118.139V162.14C118.139 162.487 118.206 162.73 118.339 162.87C118.472 163.01 118.656 163.08 118.889 163.08C119.016 163.08 119.122 163.07 119.209 163.05C119.302 163.03 119.392 163.003 119.479 162.97V163.96C119.366 164.007 119.239 164.04 119.099 164.06C118.966 164.087 118.836 164.1 118.709 164.1ZM122.569 164.1C122.049 164.1 121.599 163.993 121.219 163.78C120.839 163.567 120.543 163.263 120.329 162.87C120.123 162.477 120.019 162.01 120.019 161.47C120.019 160.93 120.123 160.467 120.329 160.08C120.543 159.687 120.839 159.383 121.219 159.17C121.599 158.957 122.049 158.85 122.569 158.85C123.089 158.85 123.539 158.957 123.919 159.17C124.306 159.383 124.603 159.687 124.809 160.08C125.023 160.467 125.129 160.93 125.129 161.47C125.129 162.01 125.023 162.477 124.809 162.87C124.603 163.263 124.306 163.567 123.919 163.78C123.539 163.993 123.089 164.1 122.569 164.1ZM122.569 163.14C122.963 163.14 123.276 163.003 123.509 162.73C123.743 162.45 123.859 162.03 123.859 161.47C123.859 160.91 123.743 160.493 123.509 160.22C123.276 159.947 122.963 159.81 122.569 159.81C122.176 159.81 121.863 159.947 121.629 160.22C121.396 160.493 121.279 160.91 121.279 161.47C121.279 162.03 121.396 162.45 121.629 162.73C121.863 163.003 122.176 163.14 122.569 163.14ZM126.207 164V160.21C126.207 160.003 126.201 159.793 126.187 159.58C126.174 159.367 126.154 159.157 126.127 158.95H127.337L127.437 159.95H127.317C127.457 159.603 127.671 159.333 127.957 159.14C128.251 158.947 128.597 158.85 128.997 158.85C129.397 158.85 129.727 158.947 129.987 159.14C130.254 159.327 130.441 159.62 130.547 160.02H130.387C130.527 159.66 130.757 159.377 131.077 159.17C131.397 158.957 131.764 158.85 132.177 158.85C132.744 158.85 133.167 159.017 133.447 159.35C133.727 159.683 133.867 160.203 133.867 160.91V164H132.617V160.96C132.617 160.56 132.551 160.273 132.417 160.1C132.284 159.92 132.071 159.83 131.777 159.83C131.431 159.83 131.157 159.953 130.957 160.2C130.757 160.44 130.657 160.767 130.657 161.18V164H129.407V160.96C129.407 160.56 129.341 160.273 129.207 160.1C129.074 159.92 128.861 159.83 128.567 159.83C128.221 159.83 127.947 159.953 127.747 160.2C127.554 160.44 127.457 160.767 127.457 161.18V164H126.207ZM137.151 164.1C136.711 164.1 136.325 163.997 135.991 163.79C135.658 163.577 135.398 163.273 135.211 162.88C135.025 162.487 134.931 162.017 134.931 161.47C134.931 160.923 135.025 160.457 135.211 160.07C135.398 159.677 135.658 159.377 135.991 159.17C136.325 158.957 136.711 158.85 137.151 158.85C137.578 158.85 137.951 158.957 138.271 159.17C138.598 159.377 138.815 159.657 138.921 160.01H138.811L138.921 158.95H140.121C140.101 159.157 140.081 159.367 140.061 159.58C140.048 159.793 140.041 160.003 140.041 160.21V164H138.801L138.791 162.96H138.911C138.805 163.307 138.588 163.583 138.261 163.79C137.935 163.997 137.565 164.1 137.151 164.1ZM137.501 163.14C137.895 163.14 138.211 163.003 138.451 162.73C138.691 162.45 138.811 162.03 138.811 161.47C138.811 160.91 138.691 160.493 138.451 160.22C138.211 159.947 137.895 159.81 137.501 159.81C137.108 159.81 136.791 159.947 136.551 160.22C136.311 160.493 136.191 160.91 136.191 161.47C136.191 162.03 136.308 162.45 136.541 162.73C136.781 163.003 137.101 163.14 137.501 163.14ZM143.563 164.1C142.963 164.1 142.509 163.943 142.203 163.63C141.896 163.317 141.743 162.847 141.743 162.22V159.89H140.773V158.95H141.743V157.66L142.993 157.34V158.95H144.343V159.89H142.993V162.14C142.993 162.487 143.059 162.73 143.193 162.87C143.326 163.01 143.509 163.08 143.743 163.08C143.869 163.08 143.976 163.07 144.063 163.05C144.156 163.03 144.246 163.003 144.333 162.97V163.96C144.219 164.007 144.093 164.04 143.953 164.06C143.819 164.087 143.689 164.1 143.563 164.1ZM145.192 164V158.95H146.442V164H145.192ZM145.122 158V156.78H146.512V158H145.122ZM150.119 164.1C149.599 164.1 149.142 163.993 148.749 163.78C148.362 163.567 148.062 163.263 147.849 162.87C147.636 162.47 147.529 161.997 147.529 161.45C147.529 160.903 147.636 160.437 147.849 160.05C148.069 159.663 148.372 159.367 148.759 159.16C149.146 158.953 149.599 158.85 150.119 158.85C150.452 158.85 150.776 158.903 151.089 159.01C151.409 159.11 151.669 159.257 151.869 159.45L151.489 160.32C151.309 160.153 151.106 160.03 150.879 159.95C150.659 159.863 150.442 159.82 150.229 159.82C149.782 159.82 149.432 159.96 149.179 160.24C148.932 160.52 148.809 160.927 148.809 161.46C148.809 161.993 148.932 162.403 149.179 162.69C149.432 162.977 149.782 163.12 150.229 163.12C150.436 163.12 150.649 163.08 150.869 163C151.096 162.92 151.302 162.797 151.489 162.63L151.869 163.49C151.662 163.683 151.399 163.833 151.079 163.94C150.766 164.047 150.446 164.1 150.119 164.1ZM154.759 164.1C154.319 164.1 153.932 163.997 153.599 163.79C153.266 163.577 153.006 163.273 152.819 162.88C152.632 162.487 152.539 162.017 152.539 161.47C152.539 160.923 152.632 160.457 152.819 160.07C153.006 159.677 153.266 159.377 153.599 159.17C153.932 158.957 154.319 158.85 154.759 158.85C155.186 158.85 155.559 158.957 155.879 159.17C156.206 159.377 156.422 159.657 156.529 160.01H156.419L156.529 158.95H157.729C157.709 159.157 157.689 159.367 157.669 159.58C157.656 159.793 157.649 160.003 157.649 160.21V164H156.409L156.399 162.96H156.519C156.412 163.307 156.196 163.583 155.869 163.79C155.542 163.997 155.172 164.1 154.759 164.1ZM155.109 163.14C155.502 163.14 155.819 163.003 156.059 162.73C156.299 162.45 156.419 162.03 156.419 161.47C156.419 160.91 156.299 160.493 156.059 160.22C155.819 159.947 155.502 159.81 155.109 159.81C154.716 159.81 154.399 159.947 154.159 160.22C153.919 160.493 153.799 160.91 153.799 161.47C153.799 162.03 153.916 162.45 154.149 162.73C154.389 163.003 154.709 163.14 155.109 163.14ZM159.01 164V156.64H160.26V164H159.01ZM161.618 164V156.64H162.868V164H161.618ZM164.125 166.27L163.835 165.28C164.148 165.213 164.412 165.137 164.625 165.05C164.838 164.963 165.015 164.85 165.155 164.71C165.295 164.57 165.412 164.39 165.505 164.17L165.755 163.58L165.725 164.07L163.525 158.95H164.855L166.435 162.89H166.145L167.735 158.95H168.995L166.695 164.28C166.542 164.64 166.375 164.937 166.195 165.17C166.015 165.41 165.822 165.6 165.615 165.74C165.408 165.887 165.182 166 164.935 166.08C164.688 166.16 164.418 166.223 164.125 166.27ZM174.349 164.1C173.909 164.1 173.522 163.997 173.189 163.79C172.855 163.577 172.595 163.273 172.409 162.88C172.222 162.487 172.129 162.017 172.129 161.47C172.129 160.923 172.222 160.457 172.409 160.07C172.595 159.677 172.855 159.377 173.189 159.17C173.522 158.957 173.909 158.85 174.349 158.85C174.775 158.85 175.149 158.957 175.469 159.17C175.795 159.377 176.012 159.657 176.119 160.01H176.009L176.119 158.95H177.319C177.299 159.157 177.279 159.367 177.259 159.58C177.245 159.793 177.239 160.003 177.239 160.21V164H175.999L175.989 162.96H176.109C176.002 163.307 175.785 163.583 175.459 163.79C175.132 163.997 174.762 164.1 174.349 164.1ZM174.699 163.14C175.092 163.14 175.409 163.003 175.649 162.73C175.889 162.45 176.009 162.03 176.009 161.47C176.009 160.91 175.889 160.493 175.649 160.22C175.409 159.947 175.092 159.81 174.699 159.81C174.305 159.81 173.989 159.947 173.749 160.22C173.509 160.493 173.389 160.91 173.389 161.47C173.389 162.03 173.505 162.45 173.739 162.73C173.979 163.003 174.299 163.14 174.699 163.14ZM178.6 166.16V160.21C178.6 160.003 178.593 159.793 178.58 159.58C178.567 159.367 178.547 159.157 178.52 158.95H179.73L179.84 160.01H179.73C179.83 159.657 180.04 159.377 180.36 159.17C180.687 158.957 181.063 158.85 181.49 158.85C181.937 158.85 182.327 158.957 182.66 159.17C182.993 159.377 183.253 159.677 183.44 160.07C183.627 160.457 183.72 160.923 183.72 161.47C183.72 162.017 183.627 162.487 183.44 162.88C183.253 163.273 182.993 163.577 182.66 163.79C182.327 163.997 181.937 164.1 181.49 164.1C181.07 164.1 180.7 163.997 180.38 163.79C180.06 163.583 179.847 163.307 179.74 162.96H179.85V166.16H178.6ZM181.14 163.14C181.54 163.14 181.86 163.003 182.1 162.73C182.34 162.45 182.46 162.03 182.46 161.47C182.46 160.91 182.34 160.493 182.1 160.22C181.86 159.947 181.54 159.81 181.14 159.81C180.747 159.81 180.43 159.947 180.19 160.22C179.95 160.493 179.83 160.91 179.83 161.47C179.83 162.03 179.95 162.45 180.19 162.73C180.43 163.003 180.747 163.14 181.14 163.14ZM184.801 166.16V160.21C184.801 160.003 184.794 159.793 184.781 159.58C184.768 159.367 184.748 159.157 184.721 158.95H185.931L186.041 160.01H185.931C186.031 159.657 186.241 159.377 186.561 159.17C186.888 158.957 187.264 158.85 187.691 158.85C188.138 158.85 188.528 158.957 188.861 159.17C189.194 159.377 189.454 159.677 189.641 160.07C189.828 160.457 189.921 160.923 189.921 161.47C189.921 162.017 189.828 162.487 189.641 162.88C189.454 163.273 189.194 163.577 188.861 163.79C188.528 163.997 188.138 164.1 187.691 164.1C187.271 164.1 186.901 163.997 186.581 163.79C186.261 163.583 186.048 163.307 185.941 162.96H186.051V166.16H184.801ZM187.341 163.14C187.741 163.14 188.061 163.003 188.301 162.73C188.541 162.45 188.661 162.03 188.661 161.47C188.661 160.91 188.541 160.493 188.301 160.22C188.061 159.947 187.741 159.81 187.341 159.81C186.948 159.81 186.631 159.947 186.391 160.22C186.151 160.493 186.031 160.91 186.031 161.47C186.031 162.03 186.151 162.45 186.391 162.73C186.631 163.003 186.948 163.14 187.341 163.14ZM191.002 164V156.64H192.252V164H191.002ZM193.61 164V158.95H194.86V164H193.61ZM193.54 158V156.78H194.93V158H193.54ZM198.657 164.1C197.81 164.1 197.147 163.867 196.667 163.4C196.187 162.933 195.947 162.293 195.947 161.48C195.947 160.953 196.05 160.493 196.257 160.1C196.464 159.707 196.75 159.4 197.117 159.18C197.49 158.96 197.924 158.85 198.417 158.85C198.904 158.85 199.31 158.953 199.637 159.16C199.964 159.367 200.21 159.657 200.377 160.03C200.55 160.403 200.637 160.84 200.637 161.34V161.67H196.957V161.01H199.747L199.577 161.15C199.577 160.683 199.477 160.327 199.277 160.08C199.084 159.833 198.8 159.71 198.427 159.71C198.014 159.71 197.694 159.857 197.467 160.15C197.247 160.443 197.137 160.853 197.137 161.38V161.51C197.137 162.057 197.27 162.467 197.537 162.74C197.81 163.007 198.194 163.14 198.687 163.14C198.974 163.14 199.24 163.103 199.487 163.03C199.74 162.95 199.98 162.823 200.207 162.65L200.577 163.49C200.337 163.683 200.05 163.833 199.717 163.94C199.384 164.047 199.03 164.1 198.657 164.1ZM203.656 164.1C203.216 164.1 202.826 163.997 202.486 163.79C202.152 163.577 201.892 163.273 201.706 162.88C201.519 162.487 201.426 162.017 201.426 161.47C201.426 160.923 201.519 160.457 201.706 160.07C201.892 159.677 202.152 159.377 202.486 159.17C202.826 158.957 203.216 158.85 203.656 158.85C204.076 158.85 204.446 158.953 204.766 159.16C205.092 159.36 205.309 159.633 205.416 159.98H205.286V156.64H206.536V164H205.306V162.93H205.426C205.319 163.29 205.102 163.577 204.776 163.79C204.456 163.997 204.082 164.1 203.656 164.1ZM204.006 163.14C204.399 163.14 204.716 163.003 204.956 162.73C205.196 162.45 205.316 162.03 205.316 161.47C205.316 160.91 205.196 160.493 204.956 160.22C204.716 159.947 204.399 159.81 204.006 159.81C203.612 159.81 203.292 159.947 203.046 160.22C202.806 160.493 202.686 160.91 202.686 161.47C202.686 162.03 202.806 162.45 203.046 162.73C203.292 163.003 203.612 163.14 204.006 163.14ZM212.601 164.1C212.161 164.1 211.771 163.997 211.431 163.79C211.098 163.577 210.838 163.273 210.651 162.88C210.464 162.487 210.371 162.017 210.371 161.47C210.371 160.923 210.464 160.457 210.651 160.07C210.838 159.677 211.098 159.377 211.431 159.17C211.771 158.957 212.161 158.85 212.601 158.85C213.021 158.85 213.391 158.953 213.711 159.16C214.038 159.36 214.254 159.633 214.361 159.98H214.231V156.64H215.481V164H214.251V162.93H214.371C214.264 163.29 214.048 163.577 213.721 163.79C213.401 163.997 213.028 164.1 212.601 164.1ZM212.951 163.14C213.344 163.14 213.661 163.003 213.901 162.73C214.141 162.45 214.261 162.03 214.261 161.47C214.261 160.91 214.141 160.493 213.901 160.22C213.661 159.947 213.344 159.81 212.951 159.81C212.558 159.81 212.238 159.947 211.991 160.22C211.751 160.493 211.631 160.91 211.631 161.47C211.631 162.03 211.751 162.45 211.991 162.73C212.238 163.003 212.558 163.14 212.951 163.14ZM218.662 164.1C218.042 164.1 217.579 163.93 217.272 163.59C216.965 163.25 216.812 162.73 216.812 162.03V158.95H218.062V162.02C218.062 162.393 218.139 162.67 218.292 162.85C218.445 163.023 218.679 163.11 218.992 163.11C219.345 163.11 219.632 162.99 219.852 162.75C220.079 162.51 220.192 162.193 220.192 161.8V158.95H221.442V164H220.222V162.97H220.362C220.215 163.33 219.992 163.61 219.692 163.81C219.399 164.003 219.055 164.1 218.662 164.1ZM222.789 164V160.24C222.789 160.027 222.782 159.81 222.769 159.59C222.762 159.37 222.746 159.157 222.719 158.95H223.929L224.069 160.33H223.869C223.936 159.997 224.046 159.72 224.199 159.5C224.359 159.28 224.552 159.117 224.779 159.01C225.006 158.903 225.252 158.85 225.519 158.85C225.639 158.85 225.736 158.857 225.809 158.87C225.882 158.877 225.956 158.893 226.029 158.92L226.019 160.02C225.892 159.967 225.782 159.933 225.689 159.92C225.602 159.907 225.492 159.9 225.359 159.9C225.072 159.9 224.829 159.96 224.629 160.08C224.436 160.2 224.289 160.367 224.189 160.58C224.096 160.793 224.049 161.037 224.049 161.31V164H222.789ZM226.725 164V158.95H227.975V164H226.725ZM226.655 158V156.78H228.045V158H226.655ZM229.332 164V160.21C229.332 160.003 229.326 159.793 229.312 159.58C229.299 159.367 229.279 159.157 229.252 158.95H230.462L230.562 159.95H230.442C230.602 159.597 230.839 159.327 231.152 159.14C231.466 158.947 231.829 158.85 232.242 158.85C232.836 158.85 233.282 159.017 233.582 159.35C233.882 159.683 234.032 160.203 234.032 160.91V164H232.782V160.97C232.782 160.563 232.702 160.273 232.542 160.1C232.389 159.92 232.156 159.83 231.842 159.83C231.456 159.83 231.149 159.95 230.922 160.19C230.696 160.43 230.582 160.75 230.582 161.15V164H229.332ZM237.698 166.24C237.231 166.24 236.808 166.19 236.428 166.09C236.054 165.99 235.721 165.837 235.428 165.63L235.698 164.73C235.891 164.857 236.091 164.96 236.298 165.04C236.504 165.12 236.718 165.18 236.938 165.22C237.158 165.26 237.381 165.28 237.608 165.28C238.074 165.28 238.421 165.163 238.648 164.93C238.881 164.703 238.998 164.377 238.998 163.95V162.74H239.098C238.991 163.087 238.774 163.363 238.448 163.57C238.128 163.777 237.758 163.88 237.338 163.88C236.884 163.88 236.488 163.78 236.148 163.58C235.814 163.373 235.554 163.08 235.368 162.7C235.181 162.32 235.088 161.873 235.088 161.36C235.088 160.847 235.181 160.403 235.368 160.03C235.554 159.65 235.814 159.36 236.148 159.16C236.488 158.953 236.884 158.85 237.338 158.85C237.764 158.85 238.134 158.953 238.448 159.16C238.768 159.36 238.981 159.633 239.088 159.98L238.998 159.92L239.098 158.95H240.308C240.281 159.157 240.261 159.367 240.248 159.58C240.234 159.793 240.228 160.003 240.228 160.21V163.8C240.228 164.593 240.011 165.197 239.578 165.61C239.151 166.03 238.524 166.24 237.698 166.24ZM237.678 162.92C238.078 162.92 238.394 162.787 238.628 162.52C238.868 162.247 238.988 161.86 238.988 161.36C238.988 160.86 238.868 160.477 238.628 160.21C238.394 159.943 238.078 159.81 237.678 159.81C237.271 159.81 236.948 159.943 236.708 160.21C236.468 160.477 236.348 160.86 236.348 161.36C236.348 161.86 236.468 162.247 236.708 162.52C236.948 162.787 237.271 162.92 237.678 162.92ZM246.643 164.1C246.123 164.1 245.666 163.993 245.273 163.78C244.886 163.567 244.586 163.263 244.373 162.87C244.159 162.47 244.053 161.997 244.053 161.45C244.053 160.903 244.159 160.437 244.373 160.05C244.593 159.663 244.896 159.367 245.283 159.16C245.669 158.953 246.123 158.85 246.643 158.85C246.976 158.85 247.299 158.903 247.613 159.01C247.933 159.11 248.193 159.257 248.393 159.45L248.013 160.32C247.833 160.153 247.629 160.03 247.403 159.95C247.183 159.863 246.966 159.82 246.753 159.82C246.306 159.82 245.956 159.96 245.703 160.24C245.456 160.52 245.333 160.927 245.333 161.46C245.333 161.993 245.456 162.403 245.703 162.69C245.956 162.977 246.306 163.12 246.753 163.12C246.959 163.12 247.173 163.08 247.393 163C247.619 162.92 247.826 162.797 248.013 162.63L248.393 163.49C248.186 163.683 247.923 163.833 247.603 163.94C247.289 164.047 246.969 164.1 246.643 164.1ZM249.362 164V156.64H250.612V159.96H250.472C250.625 159.6 250.862 159.327 251.182 159.14C251.502 158.947 251.868 158.85 252.282 158.85C252.882 158.85 253.328 159.02 253.622 159.36C253.915 159.693 254.062 160.203 254.062 160.89V164H252.812V160.95C252.812 160.557 252.735 160.273 252.582 160.1C252.435 159.92 252.198 159.83 251.872 159.83C251.492 159.83 251.185 159.95 250.952 160.19C250.725 160.423 250.612 160.737 250.612 161.13V164H249.362ZM257.827 164.1C256.98 164.1 256.317 163.867 255.837 163.4C255.357 162.933 255.117 162.293 255.117 161.48C255.117 160.953 255.22 160.493 255.427 160.1C255.634 159.707 255.92 159.4 256.287 159.18C256.66 158.96 257.094 158.85 257.587 158.85C258.074 158.85 258.48 158.953 258.807 159.16C259.134 159.367 259.38 159.657 259.547 160.03C259.72 160.403 259.807 160.84 259.807 161.34V161.67H256.127V161.01H258.917L258.747 161.15C258.747 160.683 258.647 160.327 258.447 160.08C258.254 159.833 257.97 159.71 257.597 159.71C257.184 159.71 256.864 159.857 256.637 160.15C256.417 160.443 256.307 160.853 256.307 161.38V161.51C256.307 162.057 256.44 162.467 256.707 162.74C256.98 163.007 257.364 163.14 257.857 163.14C258.144 163.14 258.41 163.103 258.657 163.03C258.91 162.95 259.15 162.823 259.377 162.65L259.747 163.49C259.507 163.683 259.22 163.833 258.887 163.94C258.554 164.047 258.2 164.1 257.827 164.1ZM263.186 164.1C262.666 164.1 262.209 163.993 261.816 163.78C261.429 163.567 261.129 163.263 260.916 162.87C260.702 162.47 260.596 161.997 260.596 161.45C260.596 160.903 260.702 160.437 260.916 160.05C261.136 159.663 261.439 159.367 261.826 159.16C262.212 158.953 262.666 158.85 263.186 158.85C263.519 158.85 263.842 158.903 264.156 159.01C264.476 159.11 264.736 159.257 264.936 159.45L264.556 160.32C264.376 160.153 264.172 160.03 263.946 159.95C263.726 159.863 263.509 159.82 263.296 159.82C262.849 159.82 262.499 159.96 262.246 160.24C261.999 160.52 261.876 160.927 261.876 161.46C261.876 161.993 261.999 162.403 262.246 162.69C262.499 162.977 262.849 163.12 263.296 163.12C263.502 163.12 263.716 163.08 263.936 163C264.162 162.92 264.369 162.797 264.556 162.63L264.936 163.49C264.729 163.683 264.466 163.833 264.146 163.94C263.832 164.047 263.512 164.1 263.186 164.1ZM265.905 164V156.64H267.155V161.1H267.175L269.225 158.95H270.735L268.185 161.62L268.195 161.12L270.915 164H269.365L267.175 161.74H267.155V164H265.905ZM273.605 164.1C273.085 164.1 272.635 163.993 272.255 163.78C271.875 163.567 271.578 163.263 271.365 162.87C271.158 162.477 271.055 162.01 271.055 161.47C271.055 160.93 271.158 160.467 271.365 160.08C271.578 159.687 271.875 159.383 272.255 159.17C272.635 158.957 273.085 158.85 273.605 158.85C274.125 158.85 274.575 158.957 274.955 159.17C275.341 159.383 275.638 159.687 275.845 160.08C276.058 160.467 276.165 160.93 276.165 161.47C276.165 162.01 276.058 162.477 275.845 162.87C275.638 163.263 275.341 163.567 274.955 163.78C274.575 163.993 274.125 164.1 273.605 164.1ZM273.605 163.14C273.998 163.14 274.311 163.003 274.545 162.73C274.778 162.45 274.895 162.03 274.895 161.47C274.895 160.91 274.778 160.493 274.545 160.22C274.311 159.947 273.998 159.81 273.605 159.81C273.211 159.81 272.898 159.947 272.665 160.22C272.431 160.493 272.315 160.91 272.315 161.47C272.315 162.03 272.431 162.45 272.665 162.73C272.898 163.003 273.211 163.14 273.605 163.14ZM279.062 164.1C278.443 164.1 277.979 163.93 277.673 163.59C277.366 163.25 277.213 162.73 277.213 162.03V158.95H278.463V162.02C278.463 162.393 278.539 162.67 278.693 162.85C278.846 163.023 279.079 163.11 279.393 163.11C279.746 163.11 280.033 162.99 280.253 162.75C280.479 162.51 280.593 162.193 280.593 161.8V158.95H281.842V164H280.623V162.97H280.763C280.616 163.33 280.393 163.61 280.093 163.81C279.799 164.003 279.456 164.1 279.062 164.1ZM285.36 164.1C284.76 164.1 284.306 163.943 284 163.63C283.693 163.317 283.54 162.847 283.54 162.22V159.89H282.57V158.95H283.54V157.66L284.79 157.34V158.95H286.14V159.89H284.79V162.14C284.79 162.487 284.856 162.73 284.99 162.87C285.123 163.01 285.306 163.08 285.54 163.08C285.666 163.08 285.773 163.07 285.86 163.05C285.953 163.03 286.043 163.003 286.13 162.97V163.96C286.016 164.007 285.89 164.04 285.75 164.06C285.616 164.087 285.486 164.1 285.36 164.1Z" fill="#BBBBBB"/>
<defs>
<linearGradient id="paint0_linear_346_22510" x1="-26.2804" y1="46.9997" x2="536.545" y2="201.792" gradientUnits="userSpaceOnUse">
<stop offset="0.05" stop-color="#730ED3"/>
<stop offset="0.36" stop-color="#973AEA"/>
<stop offset="0.51" stop-color="#A54BF4"/>
<stop offset="0.94" stop-color="#CC9FFD"/>
</linearGradient>
<linearGradient id="paint1_linear_346_22510" x1="439.099" y1="37.4158" x2="431.763" y2="-5.29026" gradientUnits="userSpaceOnUse">
<stop offset="0.05" stop-color="#D30E39"/>
<stop offset="0.34" stop-color="#EA3A5C"/>
<stop offset="0.48" stop-color="#F44B6A"/>
<stop offset="0.81" stop-color="#FD9FB9"/>
</linearGradient>
<linearGradient id="paint2_linear_346_22510" x1="416" y1="204.326" x2="416" y2="-66.5427" gradientUnits="userSpaceOnUse">
<stop offset="0.05" stop-color="#D30E39"/>
<stop offset="0.34" stop-color="#EA3A5C"/>
<stop offset="0.48" stop-color="#F44B6A"/>
<stop offset="0.81" stop-color="#FD9FB9"/>
</linearGradient>
<linearGradient id="paint3_linear_346_22510" x1="446.701" y1="109.462" x2="452.29" y2="27.9518" gradientUnits="userSpaceOnUse">
<stop offset="0.11" stop-color="#FBA703"/>
<stop offset="0.334455" stop-color="#FFD871"/>
<stop offset="0.570343" stop-color="#FFDB78"/>
<stop offset="0.76402" stop-color="#FFE48D"/>
<stop offset="0.900587" stop-color="#FFF3B0"/>
<stop offset="1" stop-color="#FFFAC0"/>
</linearGradient>
<linearGradient id="paint4_linear_346_22510" x1="477.858" y1="105.113" x2="481.167" y2="64.3371" gradientUnits="userSpaceOnUse">
<stop offset="0.11" stop-color="#FBA703"/>
<stop offset="0.334455" stop-color="#FFD871"/>
<stop offset="0.570343" stop-color="#FFDB78"/>
<stop offset="0.76402" stop-color="#FFE48D"/>
<stop offset="0.900587" stop-color="#FFF3B0"/>
<stop offset="1" stop-color="#FFFAC0"/>
</linearGradient>
<linearGradient id="paint5_linear_346_22510" x1="67.616" y1="-3.80781" x2="57.4444" y2="-2.56488" gradientUnits="userSpaceOnUse">
<stop stop-color="#32966B"/>
<stop offset="0.0001" stop-color="#85F6C5"/>
<stop offset="1" stop-color="#28AA72"/>
</linearGradient>
<linearGradient id="paint6_linear_346_22510" x1="72.4802" y1="120.528" x2="75.5359" y2="121.489" gradientUnits="userSpaceOnUse">
<stop stop-color="#9F5DFA"/>
<stop offset="1" stop-color="#4F00BD"/>
</linearGradient>
<linearGradient id="paint7_linear_346_22510" x1="338" y1="156" x2="338" y2="160.001" gradientUnits="userSpaceOnUse">
<stop stop-color="#9F5DFA"/>
<stop offset="1" stop-color="#4F00BD"/>
</linearGradient>
<linearGradient id="paint8_linear_346_22510" x1="192.5" y1="130" x2="192.5" y2="135.001" gradientUnits="userSpaceOnUse">
<stop stop-color="#9F5DFA"/>
<stop offset="1" stop-color="#4F00BD"/>
</linearGradient>
<linearGradient id="paint9_linear_346_22510" x1="20.923" y1="32.057" x2="10.3902" y2="33.3441" gradientUnits="userSpaceOnUse">
<stop stop-color="#32966B"/>
<stop offset="0.0001" stop-color="#85F6C5"/>
<stop offset="1" stop-color="#28AA72"/>
</linearGradient>
<linearGradient id="paint10_linear_346_22510" x1="92.8586" y1="58" x2="92.8586" y2="65.7164" gradientUnits="userSpaceOnUse">
<stop stop-color="#9F5DFA"/>
<stop offset="1" stop-color="#4F00BD"/>
</linearGradient>
<linearGradient id="paint11_linear_346_22510" x1="134.923" y1="166.057" x2="124.39" y2="167.344" gradientUnits="userSpaceOnUse">
<stop stop-color="#32966B"/>
<stop offset="0.0001" stop-color="#85F6C5"/>
<stop offset="1" stop-color="#28AA72"/>
</linearGradient>
<linearGradient id="paint12_linear_346_22510" x1="237.923" y1="18.057" x2="227.39" y2="19.3441" gradientUnits="userSpaceOnUse">
<stop stop-color="#32966B"/>
<stop offset="0.0001" stop-color="#85F6C5"/>
<stop offset="1" stop-color="#28AA72"/>
</linearGradient>
<linearGradient id="paint13_linear_346_22510" x1="33.8663" y1="167.76" x2="23.3336" y2="169.047" gradientUnits="userSpaceOnUse">
<stop stop-color="#32966B"/>
<stop offset="0.0001" stop-color="#85F6C5"/>
<stop offset="1" stop-color="#28AA72"/>
</linearGradient>
<linearGradient id="paint14_linear_346_22510" x1="153.958" y1="42.431" x2="156.252" y2="44.748" gradientUnits="userSpaceOnUse">
<stop stop-color="#9F5DFA"/>
<stop offset="1" stop-color="#4F00BD"/>
</linearGradient>
<linearGradient id="paint15_linear_346_22510" x1="272.162" y1="172.225" x2="272.851" y2="169.037" gradientUnits="userSpaceOnUse">
<stop stop-color="#9F5DFA"/>
<stop offset="1" stop-color="#4F00BD"/>
</linearGradient>
<linearGradient id="paint16_linear_346_22510" x1="307.93" y1="31.9189" x2="307.441" y2="34.1118" gradientUnits="userSpaceOnUse">
<stop stop-color="#9F5DFA"/>
<stop offset="1" stop-color="#4F00BD"/>
</linearGradient>
</defs>
</svg>
