<svg width="20" height="20" viewBox="0 0 20 20" fill="none" xmlns="http://www.w3.org/2000/svg">
<path d="M14.8589 13.6427C14.4168 13.6366 14.0512 13.271 14.0393 12.823L13.9667 7.16428L5.82903 15.3019C5.51673 15.6142 5.0039 15.6081 4.68549 15.2897C4.36708 14.9713 4.36102 14.4585 4.67332 14.1462L12.752 6.06749L7.1522 5.99489C6.92231 5.98892 6.72186 5.89454 6.57445 5.74713C6.42704 5.59972 6.33266 5.39927 6.32669 5.16938C6.32065 4.72729 6.68009 4.36785 7.12218 4.37389L14.7438 4.46485C15.1859 4.47089 15.5515 4.83647 15.5634 5.28446L15.6544 12.8472C15.6604 13.2893 15.301 13.6487 14.8589 13.6427Z" fill="#1E2124"/>
</svg>
