<svg width="48" height="48" viewBox="0 0 48 48" fill="current" xmlns="http://www.w3.org/2000/svg">
<path d="M32.2057 13.1557C32.2057 15.3746 31.3543 17.3735 29.7124 18.9327C28.1314 20.4919 26.0841 21.3115 23.8138 21.3115C21.5435 21.3115 19.4962 20.4919 17.8949 18.9127C16.2732 17.3735 15.4219 15.3746 15.4219 13.1557C15.4219 10.9369 16.2732 8.93794 17.9151 7.37876C19.4962 5.81957 21.5435 5 23.8138 5C26.0841 5 28.1314 5.81957 29.7327 7.39875C31.3543 8.93794 32.2057 10.9369 32.2057 13.1557Z" fill="white"/>
<path d="M35.9341 25.0498C29.9949 26.5091 25.3125 30.0672 24.2382 30.9068C24.1165 31.0267 23.9138 31.0267 23.7922 30.9068C22.7179 30.0672 17.9544 26.4491 11.9341 24.9899C11.9949 24.9099 12.0354 24.83 12.0962 24.75C12.5422 24.0504 13.0489 23.4507 13.5962 22.9709C14.2854 22.3912 15.076 21.9315 15.9679 21.6316C16.7787 21.3318 17.7517 21.1719 18.8057 21.1719C19.8598 21.1719 20.5895 21.5517 21.2787 21.9515L22.2922 22.5312C22.2922 22.5312 22.576 22.6911 23.0422 22.811C23.63 22.9909 24.2179 22.9909 24.7854 22.811C25.2719 22.6711 25.4746 22.5711 25.4949 22.5512L26.6098 21.9315C27.2584 21.5517 28.0287 21.1719 29.0422 21.1719C30.0557 21.1719 31.0084 21.3318 31.9003 21.6516C32.7111 21.9315 33.4814 22.3513 34.2111 22.9509C34.799 23.4507 35.3057 24.0504 35.7314 24.73C35.7922 24.83 35.8733 24.9499 35.9341 25.0498Z" fill="white"/>
<path d="M42.9673 27.2683L39.3794 36.0637C39.3186 36.1836 39.1767 36.2836 39.0348 36.2836C38.974 36.2836 38.893 36.2836 38.7916 36.3035C37.0686 36.3435 30.7037 36.9232 24.2983 41.8806C24.2983 41.8806 24.2578 41.8806 24.2375 41.9206C24.1159 42.0406 23.9132 42.0406 23.7916 41.9206C23.7916 41.9006 23.751 41.8806 23.7308 41.8806C17.3659 36.9432 11.001 36.3635 9.23751 36.3035C9.15642 36.2836 9.07535 36.2836 8.99426 36.2836C8.85237 36.2836 8.73075 36.1836 8.66994 36.0637L5.06183 27.2683C4.98074 27.0284 5.12264 26.7685 5.38615 26.7485C7.21048 26.5886 8.99426 26.7485 10.697 27.0284C17.2848 28.2478 22.6362 32.3056 23.7916 33.2052C23.9132 33.3251 24.1159 33.3251 24.2375 33.2052C25.3929 32.3056 30.7646 28.2278 37.3524 27.0284C39.0754 26.7286 40.8592 26.5886 42.6632 26.7485C42.9267 26.7685 43.0686 27.0284 42.9673 27.2683Z" fill="white"/>
<path d="M24.0162 42.9991C23.8135 42.9991 23.6108 42.9591 23.4284 42.8592H23.3676L23.0838 42.6393C16.9621 37.8818 10.9013 37.342 9.17835 37.2821L8.95538 37.2421C8.44862 37.2421 7.9824 36.9622 7.73916 36.4825L4.09051 27.6071C3.92834 27.1274 3.98915 26.6676 4.2324 26.3278C4.47564 25.968 4.84051 25.7481 5.28645 25.7281C7.0297 25.5682 8.85402 25.6681 10.8608 26.0279C16.8202 27.1274 21.7865 30.4256 23.9959 32.1048C26.327 30.3657 31.273 27.1074 37.1514 26.0279C39.1784 25.6681 41.0027 25.5882 42.746 25.7281C43.1716 25.7681 43.577 25.988 43.8 26.3678C44.023 26.7476 44.0635 27.2073 43.9014 27.6271L40.3135 36.4225C40.05 36.9622 39.5433 37.2621 39.0365 37.2621H38.8135C37.6176 37.3021 31.3135 37.7018 24.9284 42.6393L24.604 42.8592C24.4216 42.9391 24.2392 42.9991 24.0365 42.9991H24.0162ZM9.46213 35.3031C11.5094 35.403 17.7324 36.0827 24.0162 40.8202C30.5432 35.9228 36.9689 35.3631 38.5905 35.3031L41.6919 27.6871C40.3946 27.6471 39.0162 27.747 37.5162 28.0069C31.6378 29.0863 26.7122 32.5445 24.8473 33.9838C24.4216 34.4236 23.5703 34.4236 23.0635 33.9038C21.3 32.5445 16.3946 29.0863 10.4959 28.0069C9.01618 27.747 7.63781 27.6471 6.32024 27.6871L9.44187 35.3031H9.46213ZM23.6716 32.3846C23.6716 32.3846 23.5905 32.4446 23.55 32.4846C23.5905 32.4446 23.6311 32.4246 23.6716 32.3846ZM24.3608 32.3446C24.3608 32.3446 24.4216 32.3846 24.4419 32.4046C24.4216 32.3846 24.3811 32.3646 24.3608 32.3446Z" fill="white"/>
<path d="M25.0285 33.2051H23.0015V41.9205H25.0285V33.2051Z" fill="white"/>
</svg>
