<svg width="32" height="33" viewBox="0 0 32 33" fill="none" xmlns="http://www.w3.org/2000/svg">
<path d="M27.5806 18.463C26.9396 19.8955 25.453 20.8292 22.5072 22.671L16.3018 26.5593C12.8922 28.6824 11.1056 29.7952 9.35986 29.7952H9.12802C7.53233 29.7056 6.07302 28.9638 5.1047 27.7743C4 26.4058 4 24.3849 4 20.3815V12.6306C4 8.62729 4 6.60647 5.1047 5.23791C6.07302 4.04842 7.53233 3.30655 9.12802 3.20422C10.9555 3.11469 12.7422 4.22748 16.3018 6.4402L22.4936 10.3156C25.4531 12.1702 26.9396 13.0911 27.5806 14.5364C28.1398 15.8154 28.1398 17.1968 27.5806 18.463Z" fill="white"/>
</svg>
