<svg width="24" height="24" viewBox="0 0 24 24" fill="none" xmlns="http://www.w3.org/2000/svg">
<path d="M17.0002 3.39V7.36C17.0002 8.13 16.316 8.76 15.4845 8.76H8.24235C7.40025 8.76 6.72656 8.13 6.72656 7.36V3.39C6.72656 2.62 7.41077 2 8.24235 2H15.4845C16.3266 2 17.0002 2.62 17.0002 3.39Z" fill="#71C3FF"/>
<path d="M12.7683 9.26001H10.9473V16.1H12.7683V9.26001Z" fill="#71C3FF"/>
<path d="M20.042 16.1H18.221V13.14H5.76832V16.1H3.94727V12.3C3.94727 11.84 4.35779 11.46 4.86305 11.46H19.1367C19.642 11.46 20.0525 11.84 20.0525 12.3V16.1H20.042Z" fill="#71C3FF"/>
<path d="M7.72632 18.21V20.52C7.72632 21.34 7 22 6.11579 22H3.61053C2.71579 22 2 21.34 2 20.52V18.21C2 17.4 2.71579 16.73 3.61053 16.73H6.11579C7 16.73 7.72632 17.4 7.72632 18.21Z" fill="#71C3FF"/>
<path d="M14.7165 18.21V20.52C14.7165 21.34 13.9902 22 13.106 22H10.6008C9.70602 22 8.99023 21.34 8.99023 20.52V18.21C8.99023 17.4 9.70602 16.73 10.6008 16.73H13.106C13.9902 16.73 14.7165 17.4 14.7165 18.21Z" fill="#71C3FF"/>
<path d="M22.0009 18.21V20.52C22.0009 21.34 21.2852 22 20.4009 22H17.8852C17.0009 22 16.2852 21.34 16.2852 20.52V18.21C16.2852 17.4 17.0009 16.73 17.8852 16.73H20.4009C21.2852 16.73 22.0009 17.4 22.0009 18.21Z" fill="#71C3FF"/>
</svg>
