<svg width="891" height="147" viewBox="0 0 891 147" fill="none" xmlns="http://www.w3.org/2000/svg">
<mask id="path-1-outside-1_9656_40308" maskUnits="userSpaceOnUse" x="-1" y="-1" width="893" height="149" fill="black">
<rect fill="white" x="-1" y="-1" width="893" height="149"/>
<path d="M51.7086 144L0.908594 2.99999H45.3086L75.1086 97.2H65.3086L99.3086 2.99999H129.909L160.109 97.2H150.709L183.509 2.99999H225.109L174.109 144H139.909L111.109 61.6H115.709L86.1086 144H51.7086ZM238.252 144V2.99999H281.452V55H329.652V2.99999H372.852V144H329.652V90.2H281.452V144H238.252ZM438.065 144V76.2L446.465 99.4L382.065 2.99999H431.665L464.265 55.4H456.065L488.865 2.99999H537.065L472.665 99.4L481.265 76.2V144H438.065ZM678.615 146.4C656.882 146.4 640.548 141.133 629.615 130.6C618.682 119.933 613.215 103.933 613.215 82.6V2.99999H656.415V83.2C656.415 92.1333 658.148 98.9333 661.615 103.6C665.215 108.267 670.882 110.6 678.615 110.6C686.348 110.6 691.948 108.267 695.415 103.6C699.015 98.9333 700.815 92.1333 700.815 83.2V2.99999H743.215V82.6C743.215 103.933 737.882 119.933 727.215 130.6C716.682 141.133 700.482 146.4 678.615 146.4ZM828.577 146.4C817.111 146.4 806.044 145.067 795.377 142.4C784.844 139.733 776.111 136.133 769.177 131.6L780.977 98.4C785.244 100.933 790.044 103.2 795.377 105.2C800.711 107.067 806.244 108.6 811.977 109.8C817.711 110.867 823.377 111.4 828.977 111.4C836.844 111.4 842.111 110.6 844.777 109C847.444 107.267 848.777 105.2 848.777 102.8C848.777 100.533 847.911 98.7333 846.177 97.4C844.577 96.0667 841.177 94.8667 835.977 93.8L810.577 88.6C797.644 85.9333 787.911 81.2 781.377 74.4C774.977 67.6 771.777 58.8 771.777 48C771.777 38.4 774.377 30.0667 779.577 23C784.777 15.9333 792.111 10.4667 801.577 6.59999C811.044 2.6 822.111 0.599998 834.777 0.599998C844.777 0.599998 854.244 1.93333 863.177 4.59999C872.111 7.26666 879.377 10.8667 884.977 15.4L873.177 46.6C868.111 43.1333 862.244 40.4667 855.577 38.6C849.044 36.6 841.777 35.6 833.777 35.6C827.111 35.6 822.111 36.4 818.777 38C815.577 39.6 813.977 41.9333 813.977 45C813.977 46.8667 814.911 48.6 816.777 50.2C818.644 51.8 822.244 53.1333 827.577 54.2L852.577 59.2C865.244 61.7333 874.777 66.4 881.177 73.2C887.711 80 890.977 88.7333 890.977 99.4C890.977 108.867 888.377 117.133 883.177 124.2C877.977 131.267 870.711 136.733 861.377 140.6C852.044 144.467 841.111 146.4 828.577 146.4Z"/>
</mask>
<path d="M51.7086 144L0.908594 2.99999H45.3086L75.1086 97.2H65.3086L99.3086 2.99999H129.909L160.109 97.2H150.709L183.509 2.99999H225.109L174.109 144H139.909L111.109 61.6H115.709L86.1086 144H51.7086ZM238.252 144V2.99999H281.452V55H329.652V2.99999H372.852V144H329.652V90.2H281.452V144H238.252ZM438.065 144V76.2L446.465 99.4L382.065 2.99999H431.665L464.265 55.4H456.065L488.865 2.99999H537.065L472.665 99.4L481.265 76.2V144H438.065ZM678.615 146.4C656.882 146.4 640.548 141.133 629.615 130.6C618.682 119.933 613.215 103.933 613.215 82.6V2.99999H656.415V83.2C656.415 92.1333 658.148 98.9333 661.615 103.6C665.215 108.267 670.882 110.6 678.615 110.6C686.348 110.6 691.948 108.267 695.415 103.6C699.015 98.9333 700.815 92.1333 700.815 83.2V2.99999H743.215V82.6C743.215 103.933 737.882 119.933 727.215 130.6C716.682 141.133 700.482 146.4 678.615 146.4ZM828.577 146.4C817.111 146.4 806.044 145.067 795.377 142.4C784.844 139.733 776.111 136.133 769.177 131.6L780.977 98.4C785.244 100.933 790.044 103.2 795.377 105.2C800.711 107.067 806.244 108.6 811.977 109.8C817.711 110.867 823.377 111.4 828.977 111.4C836.844 111.4 842.111 110.6 844.777 109C847.444 107.267 848.777 105.2 848.777 102.8C848.777 100.533 847.911 98.7333 846.177 97.4C844.577 96.0667 841.177 94.8667 835.977 93.8L810.577 88.6C797.644 85.9333 787.911 81.2 781.377 74.4C774.977 67.6 771.777 58.8 771.777 48C771.777 38.4 774.377 30.0667 779.577 23C784.777 15.9333 792.111 10.4667 801.577 6.59999C811.044 2.6 822.111 0.599998 834.777 0.599998C844.777 0.599998 854.244 1.93333 863.177 4.59999C872.111 7.26666 879.377 10.8667 884.977 15.4L873.177 46.6C868.111 43.1333 862.244 40.4667 855.577 38.6C849.044 36.6 841.777 35.6 833.777 35.6C827.111 35.6 822.111 36.4 818.777 38C815.577 39.6 813.977 41.9333 813.977 45C813.977 46.8667 814.911 48.6 816.777 50.2C818.644 51.8 822.244 53.1333 827.577 54.2L852.577 59.2C865.244 61.7333 874.777 66.4 881.177 73.2C887.711 80 890.977 88.7333 890.977 99.4C890.977 108.867 888.377 117.133 883.177 124.2C877.977 131.267 870.711 136.733 861.377 140.6C852.044 144.467 841.111 146.4 828.577 146.4Z" fill="url(#paint0_linear_9656_40308)" fill-opacity="0.42"/>
<path d="M51.7086 144L50.7678 144.339L51.006 145H51.7086V144ZM0.908592 2.99999V1.99999H-0.514614L-0.0322075 3.33894L0.908592 2.99999ZM45.3086 2.99999L46.262 2.69838L46.0411 1.99999H45.3086V2.99999ZM75.1086 97.2V98.2H76.4738L76.062 96.8984L75.1086 97.2ZM65.3086 97.2L64.368 96.8605L63.8845 98.2H65.3086V97.2ZM99.3086 2.99999V1.99999H98.6064L98.368 2.66049L99.3086 2.99999ZM129.909 2.99999L130.861 2.6947L130.638 1.99999H129.909V2.99999ZM160.109 97.2V98.2H161.479L161.061 96.8947L160.109 97.2ZM150.709 97.2L149.764 96.8712L149.302 98.2H150.709V97.2ZM183.509 2.99999V1.99999H182.798L182.564 2.67116L183.509 2.99999ZM225.109 2.99999L226.049 3.34013L226.534 1.99999H225.109V2.99999ZM174.109 144V145H174.81L175.049 144.34L174.109 144ZM139.909 144L138.965 144.33L139.199 145H139.909V144ZM111.109 61.6V60.6H109.7L110.165 61.9299L111.109 61.6ZM115.709 61.6L116.65 61.9381L117.13 60.6H115.709V61.6ZM86.1086 144V145H86.8119L87.0497 144.338L86.1086 144ZM52.6494 143.661L1.8494 2.66103L-0.0322075 3.33894L50.7678 144.339L52.6494 143.661ZM0.908592 3.99999H45.3086V1.99999H0.908592V3.99999ZM44.3552 3.30161L74.1552 97.5016L76.062 96.8984L46.262 2.69838L44.3552 3.30161ZM75.1086 96.2H65.3086V98.2H75.1086V96.2ZM66.2492 97.5395L100.249 3.33949L98.368 2.66049L64.368 96.8605L66.2492 97.5395ZM99.3086 3.99999H129.909V1.99999H99.3086V3.99999ZM128.956 3.30528L159.156 97.5053L161.061 96.8947L130.861 2.6947L128.956 3.30528ZM160.109 96.2H150.709V98.2H160.109V96.2ZM151.653 97.5288L184.453 3.32883L182.564 2.67116L149.764 96.8712L151.653 97.5288ZM183.509 3.99999H225.109V1.99999H183.509V3.99999ZM224.168 2.65986L173.168 143.66L175.049 144.34L226.049 3.34013L224.168 2.65986ZM174.109 143H139.909V145H174.109V143ZM140.853 143.67L112.053 61.2701L110.165 61.9299L138.965 144.33L140.853 143.67ZM111.109 62.6H115.709V60.6H111.109V62.6ZM114.767 61.2619L85.1675 143.662L87.0497 144.338L116.65 61.9381L114.767 61.2619ZM86.1086 143H51.7086V145H86.1086V143ZM238.252 144H237.252V145H238.252V144ZM238.252 2.99999V1.99999H237.252V2.99999H238.252ZM281.452 2.99999H282.452V1.99999H281.452V2.99999ZM281.452 55H280.452V56H281.452V55ZM329.652 55V56H330.652V55H329.652ZM329.652 2.99999V1.99999H328.652V2.99999H329.652ZM372.852 2.99999H373.852V1.99999H372.852V2.99999ZM372.852 144V145H373.852V144H372.852ZM329.652 144H328.652V145H329.652V144ZM329.652 90.2H330.652V89.2H329.652V90.2ZM281.452 90.2V89.2H280.452V90.2H281.452ZM281.452 144V145H282.452V144H281.452ZM239.252 144V2.99999H237.252V144H239.252ZM238.252 3.99999H281.452V1.99999H238.252V3.99999ZM280.452 2.99999V55H282.452V2.99999H280.452ZM281.452 56H329.652V54H281.452V56ZM330.652 55V2.99999H328.652V55H330.652ZM329.652 3.99999H372.852V1.99999H329.652V3.99999ZM371.852 2.99999V144H373.852V2.99999H371.852ZM372.852 143H329.652V145H372.852V143ZM330.652 144V90.2H328.652V144H330.652ZM329.652 89.2H281.452V91.2H329.652V89.2ZM280.452 90.2V144H282.452V90.2H280.452ZM281.452 143H238.252V145H281.452V143ZM438.065 144H437.065V145H438.065V144ZM438.065 76.2L439.005 75.8596L437.065 76.2H438.065ZM446.465 99.4L445.633 99.9555L447.405 99.0596L446.465 99.4ZM382.065 2.99999V1.99999H380.194L381.233 3.55549L382.065 2.99999ZM431.665 2.99999L432.514 2.47174L432.22 1.99999H431.665V2.99999ZM464.265 55.4V56.4H466.065L465.114 54.8717L464.265 55.4ZM456.065 55.4L455.217 54.8694L454.259 56.4H456.065V55.4ZM488.865 2.99999V1.99999H488.311L488.017 2.46941L488.865 2.99999ZM537.065 2.99999L537.896 3.55549L538.936 1.99999H537.065V2.99999ZM472.665 99.4L471.727 99.0524L473.496 99.9555L472.665 99.4ZM481.265 76.2H482.265L480.327 75.8524L481.265 76.2ZM481.265 144V145H482.265V144H481.265ZM439.065 144V76.2H437.065V144H439.065ZM437.125 76.5404L445.525 99.7404L447.405 99.0596L439.005 75.8596L437.125 76.5404ZM447.296 98.8445L382.896 2.4445L381.233 3.55549L445.633 99.9555L447.296 98.8445ZM382.065 3.99999H431.665V1.99999H382.065V3.99999ZM430.816 3.52824L463.416 55.9282L465.114 54.8717L432.514 2.47174L430.816 3.52824ZM464.265 54.4H456.065V56.4H464.265V54.4ZM456.912 55.9306L489.712 3.53057L488.017 2.46941L455.217 54.8694L456.912 55.9306ZM488.865 3.99999H537.065V1.99999H488.865V3.99999ZM536.233 2.4445L471.833 98.8445L473.496 99.9555L537.896 3.55549L536.233 2.4445ZM473.602 99.7476L482.203 76.5476L480.327 75.8524L471.727 99.0524L473.602 99.7476ZM480.265 76.2V144H482.265V76.2H480.265ZM481.265 143H438.065V145H481.265V143ZM629.615 130.6L628.917 131.316L628.921 131.32L629.615 130.6ZM613.215 2.99999V1.99999H612.215V2.99999H613.215ZM656.415 2.99999H657.415V1.99999H656.415V2.99999ZM661.615 103.6L660.812 104.196L660.818 104.204L660.823 104.211L661.615 103.6ZM695.415 103.6L694.623 102.989L694.617 102.996L694.612 103.004L695.415 103.6ZM700.815 2.99999V1.99999H699.815V2.99999H700.815ZM743.215 2.99999H744.215V1.99999H743.215V2.99999ZM727.215 130.6L726.508 129.893L727.215 130.6ZM678.615 145.4C657.029 145.4 640.988 140.169 630.309 129.88L628.921 131.32C640.108 142.098 656.734 147.4 678.615 147.4V145.4ZM630.313 129.884C619.639 119.47 614.215 103.773 614.215 82.6H612.215C612.215 104.094 617.724 120.396 628.917 131.316L630.313 129.884ZM614.215 82.6V2.99999H612.215V82.6H614.215ZM613.215 3.99999H656.415V1.99999H613.215V3.99999ZM655.415 2.99999V83.2H657.415V2.99999H655.415ZM655.415 83.2C655.415 92.2397 657.165 99.2868 660.812 104.196L662.418 103.004C659.131 98.5798 657.415 92.0269 657.415 83.2H655.415ZM660.823 104.211C664.668 109.196 670.677 111.6 678.615 111.6V109.6C671.086 109.6 665.761 107.338 662.407 102.989L660.823 104.211ZM678.615 111.6C686.551 111.6 692.503 109.196 696.218 104.196L694.612 103.004C691.393 107.337 686.145 109.6 678.615 109.6V111.6ZM696.207 104.211C699.995 99.2993 701.815 92.2461 701.815 83.2H699.815C699.815 92.0206 698.034 98.5673 694.623 102.989L696.207 104.211ZM701.815 83.2V2.99999H699.815V83.2H701.815ZM700.815 3.99999H743.215V1.99999H700.815V3.99999ZM742.215 2.99999V82.6H744.215V2.99999H742.215ZM742.215 82.6C742.215 103.779 736.921 119.48 726.508 129.893L727.922 131.307C738.842 120.387 744.215 104.087 744.215 82.6H742.215ZM726.508 129.893C716.234 140.166 700.34 145.4 678.615 145.4V147.4C700.623 147.4 717.129 142.1 727.922 131.307L726.508 129.893ZM795.377 142.4L795.132 143.369L795.135 143.37L795.377 142.4ZM769.177 131.6L768.235 131.265L767.972 132.006L768.63 132.437L769.177 131.6ZM780.977 98.4L781.488 97.5401L780.442 96.9193L780.035 98.0651L780.977 98.4ZM795.377 105.2L795.026 106.136L795.037 106.14L795.047 106.144L795.377 105.2ZM811.977 109.8L811.772 110.779L811.783 110.781L811.794 110.783L811.977 109.8ZM844.777 109L845.292 109.857L845.307 109.848L845.322 109.838L844.777 109ZM846.177 97.4L845.537 98.1682L845.552 98.1807L845.568 98.1926L846.177 97.4ZM835.977 93.8L836.178 92.8204L836.178 92.8203L835.977 93.8ZM810.577 88.6L810.375 89.5794L810.377 89.5797L810.577 88.6ZM781.377 74.4L780.649 75.0854L780.656 75.0928L781.377 74.4ZM779.577 23L780.383 23.5927L779.577 23ZM801.577 6.59999L801.956 7.52582L801.967 7.52114L801.577 6.59999ZM863.177 4.59999L863.463 3.64178L863.177 4.59999ZM884.977 15.4L885.913 15.7537L886.168 15.0776L885.607 14.6228L884.977 15.4ZM873.177 46.6L872.613 47.4253L873.663 48.1437L874.113 46.9537L873.177 46.6ZM855.577 38.6L855.285 39.5562L855.296 39.5597L855.308 39.563L855.577 38.6ZM818.777 38L818.345 37.0985L818.337 37.102L818.33 37.1056L818.777 38ZM816.777 50.2L816.127 50.9593L816.777 50.2ZM827.577 54.2L827.773 53.2194L827.577 54.2ZM852.577 59.2L852.381 60.1806L852.577 59.2ZM881.177 73.2L880.449 73.8854L880.456 73.8928L881.177 73.2ZM883.177 124.2L883.983 124.793L883.177 124.2ZM861.377 140.6L861.76 141.524L861.377 140.6ZM828.577 145.4C817.189 145.4 806.204 144.076 795.62 141.43L795.135 143.37C805.884 146.057 817.032 147.4 828.577 147.4V145.4ZM795.623 141.431C785.165 138.783 776.542 135.22 769.725 130.763L768.63 132.437C775.68 137.046 784.523 140.684 795.132 143.369L795.623 141.431ZM770.12 131.935L781.92 98.7349L780.035 98.0651L768.235 131.265L770.12 131.935ZM780.467 99.2599C784.791 101.827 789.646 104.119 795.026 106.136L795.728 104.264C790.443 102.281 785.697 100.039 781.488 97.5401L780.467 99.2599ZM795.047 106.144C800.423 108.025 805.998 109.57 811.772 110.779L812.182 108.821C806.49 107.63 800.999 106.108 795.708 104.256L795.047 106.144ZM811.794 110.783C817.586 111.861 823.314 112.4 828.977 112.4V110.4C823.441 110.4 817.836 109.873 812.16 108.817L811.794 110.783ZM828.977 112.4C832.94 112.4 836.277 112.199 838.978 111.789C841.661 111.381 843.794 110.756 845.292 109.857L844.263 108.143C843.094 108.844 841.26 109.419 838.677 109.811C836.111 110.201 832.882 110.4 828.977 110.4V112.4ZM845.322 109.838C848.17 107.988 849.777 105.645 849.777 102.8H847.777C847.777 104.755 846.718 106.546 844.232 108.162L845.322 109.838ZM849.777 102.8C849.777 100.236 848.777 98.1379 846.787 96.6074L845.568 98.1926C847.045 99.3287 847.777 100.831 847.777 102.8H849.777ZM846.818 96.6318C845.883 95.853 844.503 95.172 842.76 94.557C841.002 93.9365 838.804 93.3591 836.178 92.8204L835.776 94.7796C838.35 95.3076 840.453 95.8635 842.095 96.443C843.752 97.028 844.872 97.6137 845.537 98.1682L846.818 96.6318ZM836.178 92.8203L810.778 87.6203L810.377 89.5797L835.777 94.7797L836.178 92.8203ZM810.779 87.6206C797.967 84.979 788.446 80.3136 782.098 73.7072L780.656 75.0928C787.376 82.0864 797.321 86.8877 810.375 89.5794L810.779 87.6206ZM782.106 73.7146C775.907 67.1291 772.777 58.588 772.777 48H770.777C770.777 59.012 774.047 68.0709 780.649 75.0854L782.106 73.7146ZM772.777 48C772.777 38.5921 775.321 30.4713 780.383 23.5927L778.772 22.4073C773.434 29.662 770.777 38.2079 770.777 48H772.777ZM780.383 23.5927C785.457 16.6973 792.631 11.3345 801.955 7.52575L801.199 5.67424C791.591 9.5988 784.098 15.1693 778.772 22.4073L780.383 23.5927ZM801.967 7.52114C811.285 3.58377 822.214 1.6 834.777 1.6V-0.400002C822.007 -0.400002 810.803 1.61622 801.188 5.67885L801.967 7.52114ZM834.777 1.6C844.688 1.6 854.057 2.9212 862.891 5.55821L863.463 3.64178C854.431 0.945465 844.867 -0.400002 834.777 -0.400002V1.6ZM862.891 5.55821C871.735 8.19801 878.875 11.7463 884.348 16.1772L885.607 14.6228C879.88 9.98699 872.487 6.3353 863.463 3.64178L862.891 5.55821ZM884.042 15.0462L872.242 46.2462L874.113 46.9537L885.913 15.7537L884.042 15.0462ZM873.742 45.7747C868.574 42.239 862.606 39.5294 855.847 37.637L855.308 39.563C861.882 41.4039 867.647 44.0277 872.613 47.4253L873.742 45.7747ZM855.87 37.6438C849.227 35.6103 841.86 34.6 833.777 34.6V36.6C841.695 36.6 848.861 37.5897 855.285 39.5562L855.87 37.6438ZM833.777 34.6C827.063 34.6 821.882 35.4007 818.345 37.0985L819.21 38.9015C822.34 37.3993 827.159 36.6 833.777 36.6V34.6ZM818.33 37.1056C816.618 37.9617 815.271 39.0456 814.353 40.3845C813.429 41.7317 812.977 43.2826 812.977 45H814.977C814.977 43.6508 815.326 42.5016 816.002 41.5155C816.684 40.521 817.737 39.6383 819.225 38.8944L818.33 37.1056ZM812.977 45C812.977 47.2445 814.113 49.2334 816.127 50.9593L817.428 49.4407C815.708 47.9666 814.977 46.4888 814.977 45H812.977ZM816.127 50.9593C818.207 52.7422 822.037 54.1118 827.381 55.1806L827.773 53.2194C822.451 52.1548 819.081 50.8578 817.428 49.4407L816.127 50.9593ZM827.381 55.1806L852.381 60.1806L852.773 58.2194L827.773 53.2194L827.381 55.1806ZM852.381 60.1806C864.92 62.6884 874.237 67.2847 880.449 73.8854L881.906 72.5146C875.318 65.5153 865.568 60.7783 852.773 58.2194L852.381 60.1806ZM880.456 73.8928C886.787 80.4817 889.977 88.9549 889.977 99.4H891.977C891.977 88.5117 888.635 79.5183 881.898 72.5072L880.456 73.8928ZM889.977 99.4C889.977 108.671 887.435 116.726 882.372 123.607L883.983 124.793C889.319 117.54 891.977 109.062 891.977 99.4H889.977ZM882.372 123.607C877.296 130.506 870.185 135.868 860.995 139.676L861.76 141.524C871.236 137.598 878.659 132.027 883.983 124.793L882.372 123.607ZM860.995 139.676C851.808 143.482 841.01 145.4 828.577 145.4V147.4C841.211 147.4 852.28 145.451 861.76 141.524L860.995 139.676Z" fill="url(#paint1_radial_9656_40308)" mask="url(#path-1-outside-1_9656_40308)"/>
<defs>
<linearGradient id="paint0_linear_9656_40308" x1="449" y1="-68" x2="449" y2="240.5" gradientUnits="userSpaceOnUse">
<stop stop-color="#151819"/>
<stop offset="1" stop-color="#0B0F13" stop-opacity="0"/>
</linearGradient>
<radialGradient id="paint1_radial_9656_40308" cx="0" cy="0" r="1" gradientUnits="userSpaceOnUse" gradientTransform="translate(449 -4.5) rotate(90) scale(229.5 1123.91)">
<stop stop-color="#EDCE93"/>
<stop offset="1" stop-color="#005B8E" stop-opacity="0.2"/>
</radialGradient>
</defs>
</svg>
